<?xml version="1.0" encoding="UTF-8"?>
<svg id="Capa_1" data-name="Capa 1" xmlns="http://www.w3.org/2000/svg" xmlns:xlink="http://www.w3.org/1999/xlink" viewBox="0 0 107.75 117.73">
  <defs>
    <style>
      .cls-1 {
        fill: #ccb03a;
      }

      .cls-1, .cls-2, .cls-3 {
        stroke-width: 0px;
      }

      .cls-2 {
        fill: #ddbe3c;
      }

      .cls-3 {
        fill: url(#Degradado_sin_nombre_213);
      }
    </style>
    <linearGradient id="Degradado_sin_nombre_213" data-name="Degradado sin nombre 213" x1="0" y1="59.29" x2="107.75" y2="59.29" gradientUnits="userSpaceOnUse">
      <stop offset="0" stop-color="#cdd400"/>
      <stop offset=".04" stop-color="#d2d91d"/>
      <stop offset=".14" stop-color="#e0e461"/>
      <stop offset=".23" stop-color="#ebed99"/>
      <stop offset=".31" stop-color="#f3f5c5"/>
      <stop offset=".39" stop-color="#f9fae4"/>
      <stop offset=".45" stop-color="#fdfdf8"/>
      <stop offset=".5" stop-color="#fff"/>
      <stop offset=".54" stop-color="#fdfdf9"/>
      <stop offset=".61" stop-color="#fafbe8"/>
      <stop offset=".68" stop-color="#f5f6cc"/>
      <stop offset=".76" stop-color="#edefa5"/>
      <stop offset=".84" stop-color="#e3e773"/>
      <stop offset=".93" stop-color="#d7dd37"/>
      <stop offset="1" stop-color="#cdd400"/>
    </linearGradient>
  </defs>
  <path class="cls-3" d="m53.9,5.41c29.77.04,53.88,24.16,53.85,53.9-.03,29.76-24.18,53.89-53.9,53.85C24.09,113.13-.03,88.99,0,59.26.03,29.5,24.18,5.38,53.9,5.41Zm-.03,103.44c27.36,0,49.54-22.16,49.57-49.53.03-27.35-22.1-49.52-49.5-49.59-27.37-.07-49.66,22.2-49.63,49.59.03,27.36,22.21,49.53,49.56,49.53Z"/>
  <path class="cls-1" d="m57.1,112.45s-2.8-7.89,11-6.82c13.8,1.07,9.58-10.11,9.58-10.11,0,0,8.42,12.02-6.46,14.17-1.81.26-3.65.21-5.46-.02-2.53-.32-6.99-.38-8.66,2.78Z"/>
  <path class="cls-1" d="m53.41,115.83s.78-9.78,30.28-1.84c0,0,5.61,1.73,8.34-2.11,0,0,.35,7.81-11.94,5.39-12.29-2.42-19.91-4.59-26.69-1.44Z"/>
  <path class="cls-2" d="m55.42,114.31s-.42-9.8,29.83-5.55c0,0,5.78,1.03,8.02-3.12,0,0,1.31,7.71-11.19,6.82-12.49-.9-20.32-2.11-26.66,1.85Z"/>
  <path class="cls-1" d="m50.62,112.45s2.8-7.89-11-6.82c-13.8,1.07-9.58-10.11-9.58-10.11,0,0-8.42,12.02,6.46,14.17,1.81.26,3.65.21,5.46-.02,2.53-.32,6.99-.38,8.66,2.78Z"/>
  <path class="cls-1" d="m54.31,115.83s-.78-9.78-30.28-1.84c0,0-5.61,1.73-8.34-2.11,0,0-.35,7.81,11.94,5.39,12.29-2.42,19.91-4.59,26.69-1.44Z"/>
  <path class="cls-2" d="m52.3,114.31s.42-9.8-29.83-5.55c0,0-5.78,1.03-8.02-3.12,0,0-1.31,7.71,11.19,6.82,12.49-.9,20.32-2.11,26.66,1.85Z"/>
  <circle class="cls-2" cx="53.71" cy="111.3" r="5.66"/>
  <path class="cls-1" d="m56.65,4.51s-2.8,7.89,11,6.82c13.8-1.07,9.58,10.11,9.58,10.11,0,0,8.42-12.02-6.46-14.17-1.81-.26-3.65-.21-5.46.02-2.53.32-6.99.38-8.66-2.78Z"/>
  <path class="cls-1" d="m50.17,4.51s2.8,7.89-11,6.82c-13.8-1.07-9.58,10.11-9.58,10.11,0,0-8.42-12.02,6.46-14.17,1.81-.26,3.65-.21,5.46.02,2.53.32,6.99.38,8.66-2.78Z"/>
  <circle class="cls-2" cx="53.26" cy="5.66" r="5.66"/>
</svg>