<?xml version="1.0" encoding="UTF-8"?>
<svg id="Capa_1" data-name="Capa 1" xmlns="http://www.w3.org/2000/svg" xmlns:xlink="http://www.w3.org/1999/xlink" viewBox="0 0 107.75 127.05">
  <defs>
    <style>
      .cls-1 {
        fill: url(#Degradado_sin_nombre_201);
      }

      .cls-1, .cls-2 {
        stroke-width: 0px;
      }

      .cls-2 {
        fill: #f489e0;
      }
    </style>
    <linearGradient id="Degradado_sin_nombre_201" data-name="Degradado sin nombre 201" x1="24.36" y1="11.81" x2="86.23" y2="11.81" gradientUnits="userSpaceOnUse">
      <stop offset="0" stop-color="#f489e0"/>
      <stop offset=".03" stop-color="#f492e2"/>
      <stop offset=".33" stop-color="#fce0f6"/>
      <stop offset=".46" stop-color="#fff"/>
      <stop offset=".53" stop-color="#fef9fd"/>
      <stop offset=".63" stop-color="#fce8f8"/>
      <stop offset=".75" stop-color="#faccf1"/>
      <stop offset=".87" stop-color="#f6a5e7"/>
      <stop offset=".95" stop-color="#f489e0"/>
    </linearGradient>
  </defs>
  <path class="cls-2" d="m53.9,19.3c29.77.04,53.88,24.16,53.85,53.9-.03,29.76-24.18,53.89-53.9,53.85C24.09,127.02-.03,102.88,0,73.15.03,43.39,24.18,19.27,53.9,19.3Zm-.03,103.44c27.36,0,49.54-22.16,49.57-49.53.03-27.35-22.1-49.52-49.5-49.59-27.37-.07-49.66,22.2-49.63,49.59.03,27.36,22.21,49.53,49.56,49.53Z"/>
  <path class="cls-1" d="m73.55,23.61l12.68-12.68h-13.47V0l-10.08,10.08-8.13-7.49-6.54,7.87L38.81.19v10.98h-14.45l10.7,12.38c5.97-2.28,12.44-3.53,19.2-3.52,6.8,0,13.3,1.28,19.28,3.59Z"/>
</svg>