<?xml version="1.0" encoding="UTF-8"?>
<svg id="Capa_1" data-name="Capa 1" xmlns="http://www.w3.org/2000/svg" xmlns:xlink="http://www.w3.org/1999/xlink" viewBox="0 0 130.16 116.04">
  <defs>
    <style>
      .cls-1 {
        fill: url(#Degradado_sin_nombre_127-7);
      }

      .cls-1, .cls-2, .cls-3, .cls-4, .cls-5, .cls-6, .cls-7, .cls-8, .cls-9, .cls-10, .cls-11, .cls-12, .cls-13, .cls-14 {
        stroke-width: 0px;
      }

      .cls-2 {
        fill: url(#Degradado_sin_nombre_127-11);
      }

      .cls-3 {
        fill: url(#Degradado_sin_nombre_127-5);
      }

      .cls-4 {
        fill: url(#Degradado_sin_nombre_115);
      }

      .cls-5 {
        fill: url(#Degradado_sin_nombre_181);
      }

      .cls-6 {
        fill: url(#Degradado_sin_nombre_127-9);
      }

      .cls-7 {
        fill: url(#Degradado_sin_nombre_127-4);
      }

      .cls-8 {
        fill: url(#Degradado_sin_nombre_127);
      }

      .cls-9 {
        fill: url(#Degradado_sin_nombre_127-2);
      }

      .cls-10 {
        fill: url(#Degradado_sin_nombre_127-6);
      }

      .cls-11 {
        fill: url(#Degradado_sin_nombre_106);
      }

      .cls-12 {
        fill: url(#Degradado_sin_nombre_127-3);
      }

      .cls-13 {
        fill: url(#Degradado_sin_nombre_127-8);
      }

      .cls-14 {
        fill: url(#Degradado_sin_nombre_127-10);
      }
    </style>
    <linearGradient id="Degradado_sin_nombre_181" data-name="Degradado sin nombre 181" x1="64.91" y1="116.04" x2="64.91" y2="0" gradientUnits="userSpaceOnUse">
      <stop offset="0" stop-color="#f489e0"/>
      <stop offset=".05" stop-color="#f59ae4"/>
      <stop offset=".19" stop-color="#f9c5ef"/>
      <stop offset=".32" stop-color="#fce4f8"/>
      <stop offset=".42" stop-color="#fef8fd"/>
      <stop offset=".5" stop-color="#fff"/>
      <stop offset=".56" stop-color="#fef9fd"/>
      <stop offset=".66" stop-color="#fce8f9"/>
      <stop offset=".76" stop-color="#faccf1"/>
      <stop offset=".87" stop-color="#f6a6e7"/>
      <stop offset=".95" stop-color="#f489e0"/>
    </linearGradient>
    <linearGradient id="Degradado_sin_nombre_106" data-name="Degradado sin nombre 106" x1="11.34" y1="58.19" x2="119.09" y2="58.19" gradientUnits="userSpaceOnUse">
      <stop offset="0" stop-color="#f489e0"/>
      <stop offset=".05" stop-color="#f59ae4"/>
      <stop offset=".19" stop-color="#f9c5ef"/>
      <stop offset=".32" stop-color="#fce4f8"/>
      <stop offset=".42" stop-color="#fef8fd"/>
      <stop offset=".5" stop-color="#fff"/>
      <stop offset=".57" stop-color="#fef9fd"/>
      <stop offset=".67" stop-color="#fce8f9"/>
      <stop offset=".79" stop-color="#faccf1"/>
      <stop offset=".92" stop-color="#f6a6e7"/>
      <stop offset="1" stop-color="#f489e0"/>
    </linearGradient>
    <linearGradient id="Degradado_sin_nombre_127" data-name="Degradado sin nombre 127" x1="-184.19" y1="179.38" x2="-174.58" y2="179.38" gradientTransform="translate(-237.81 62.08) rotate(140.96) scale(1 -1)" gradientUnits="userSpaceOnUse">
      <stop offset="0" stop-color="#f489e0"/>
      <stop offset=".55" stop-color="#f9c8f0"/>
      <stop offset="1" stop-color="#fff"/>
    </linearGradient>
    <linearGradient id="Degradado_sin_nombre_127-2" data-name="Degradado sin nombre 127" x1="-188.05" y1="201.97" x2="-188.05" y2="156.79" xlink:href="#Degradado_sin_nombre_127"/>
    <linearGradient id="Degradado_sin_nombre_127-3" data-name="Degradado sin nombre 127" x1="-39.02" y1="201.44" x2="-26.87" y2="201.44" gradientTransform="translate(-135.7 -26.15) rotate(-62.68)" xlink:href="#Degradado_sin_nombre_127"/>
    <linearGradient id="Degradado_sin_nombre_127-4" data-name="Degradado sin nombre 127" x1="-43.9" y1="230" x2="-43.9" y2="172.89" gradientTransform="translate(-135.7 -26.15) rotate(-62.68)" xlink:href="#Degradado_sin_nombre_127"/>
    <linearGradient id="Degradado_sin_nombre_127-5" data-name="Degradado sin nombre 127" x1="-179.19" y1="233.36" x2="-171.56" y2="233.36" gradientTransform="translate(-250.49 117.94) rotate(125.01) scale(1 -1)" xlink:href="#Degradado_sin_nombre_127"/>
    <linearGradient id="Degradado_sin_nombre_127-6" data-name="Degradado sin nombre 127" x1="-182.26" y1="251.31" x2="-182.26" y2="215.41" gradientTransform="translate(-250.49 117.94) rotate(125.01) scale(1 -1)" xlink:href="#Degradado_sin_nombre_127"/>
    <linearGradient id="Degradado_sin_nombre_115" data-name="Degradado sin nombre 115" x1="9.47" y1="22.33" x2="19.08" y2="22.33" gradientTransform="translate(118.63 62.08) rotate(39.04)" gradientUnits="userSpaceOnUse">
      <stop offset="0" stop-color="#f489e0"/>
      <stop offset=".55" stop-color="#f9c8f0"/>
      <stop offset="1" stop-color="#fff"/>
    </linearGradient>
    <linearGradient id="Degradado_sin_nombre_127-7" data-name="Degradado sin nombre 127" x1="5.61" y1="44.92" x2="5.61" y2="-.26" gradientTransform="translate(118.63 62.08) rotate(39.04)" xlink:href="#Degradado_sin_nombre_127"/>
    <linearGradient id="Degradado_sin_nombre_127-8" data-name="Degradado sin nombre 127" x1="-153.45" y1="-20.09" x2="-141.3" y2="-20.09" gradientTransform="translate(16.52 -26.15) rotate(-117.32) scale(1 -1)" xlink:href="#Degradado_sin_nombre_127"/>
    <linearGradient id="Degradado_sin_nombre_127-9" data-name="Degradado sin nombre 127" x1="-158.33" y1="8.47" x2="-158.33" y2="-48.65" gradientTransform="translate(16.52 -26.15) rotate(-117.32) scale(1 -1)" xlink:href="#Degradado_sin_nombre_127"/>
    <linearGradient id="Degradado_sin_nombre_127-10" data-name="Degradado sin nombre 127" x1="-36.14" y1="29.14" x2="-28.5" y2="29.14" gradientTransform="translate(131.31 117.94) rotate(54.99)" xlink:href="#Degradado_sin_nombre_127"/>
    <linearGradient id="Degradado_sin_nombre_127-11" data-name="Degradado sin nombre 127" x1="-39.21" y1="47.09" x2="-39.21" y2="11.19" gradientTransform="translate(131.31 117.94) rotate(54.99)" xlink:href="#Degradado_sin_nombre_127"/>
  </defs>
  <path class="cls-5" d="m64.93,0c32.06.04,58.02,26.02,57.99,58.04-.03,32.05-26.04,58.03-58.05,57.99-32.05-.04-58.03-26.03-58-58.05C6.92,25.94,32.92-.04,64.93,0Zm-.03,111.4c29.46,0,53.35-23.87,53.38-53.34.03-29.45-23.8-53.33-53.31-53.41-29.47-.08-53.48,23.91-53.45,53.41.03,29.47,23.92,53.34,53.38,53.35Z"/>
  <path class="cls-11" d="m65.24,4.31c29.77.04,53.88,24.16,53.85,53.9-.03,29.76-24.18,53.89-53.9,53.85-29.76-.04-53.88-24.17-53.85-53.9.03-29.76,24.18-53.89,53.9-53.85Zm-.03,103.44c27.36,0,49.54-22.16,49.57-49.53.03-27.35-22.1-49.52-49.5-49.59-27.37-.07-49.66,22.2-49.63,49.59.03,27.36,22.21,49.53,49.56,49.53Z"/>
  <g>
    <polygon class="cls-8" points="4.01 67.84 32.47 102.93 10.78 91.44 4.01 67.84"/>
    <polyline class="cls-9" points="32.47 102.93 24.23 80.53 4.01 67.84"/>
  </g>
  <g>
    <polygon class="cls-12" points="0 87.86 50.75 114.08 30.95 90.17 0 87.86"/>
    <polyline class="cls-7" points="50.75 114.08 20.9 109.64 0 87.86"/>
  </g>
  <g>
    <polygon class="cls-3" points="28.75 94.76 58.16 115.35 39.08 111.31 28.75 94.76"/>
    <polyline class="cls-10" points="58.16 115.35 46.98 100.03 28.75 94.76"/>
  </g>
  <g>
    <polygon class="cls-4" points="126.15 67.84 97.69 102.93 119.38 91.44 126.15 67.84"/>
    <polyline class="cls-1" points="97.69 102.93 105.92 80.53 126.15 67.84"/>
  </g>
  <g>
    <polygon class="cls-13" points="130.16 87.86 79.41 114.08 99.21 90.17 130.16 87.86"/>
    <polyline class="cls-6" points="79.41 114.08 109.26 109.64 130.16 87.86"/>
  </g>
  <g>
    <polygon class="cls-14" points="101.41 94.76 72 115.35 91.08 111.31 101.41 94.76"/>
    <polyline class="cls-2" points="72 115.35 83.18 100.03 101.41 94.76"/>
  </g>
</svg>