<?xml version="1.0" encoding="UTF-8"?>
<svg id="Capa_1" data-name="Capa 1" xmlns="http://www.w3.org/2000/svg" xmlns:xlink="http://www.w3.org/1999/xlink" viewBox="0 0 132.29 132.02">
  <defs>
    <style>
      .cls-1 {
        fill: url(#Degradado_sin_nombre_59);
      }

      .cls-1, .cls-2, .cls-3, .cls-4, .cls-5 {
        stroke-width: 0px;
      }

      .cls-2 {
        fill: url(#Degradado_sin_nombre_58);
      }

      .cls-3 {
        fill: url(#Degradado_sin_nombre_59-2);
      }

      .cls-4 {
        fill: url(#Degradado_sin_nombre_58-2);
      }

      .cls-5 {
        fill: url(#Degradado_sin_nombre_106);
      }
    </style>
    <linearGradient id="Degradado_sin_nombre_58" data-name="Degradado sin nombre 58" x1="5.53" y1="54.34" x2="40.75" y2="54.34" gradientUnits="userSpaceOnUse">
      <stop offset="0" stop-color="#f490e1"/>
      <stop offset=".11" stop-color="#f8b9ec"/>
      <stop offset=".23" stop-color="#fbdff6"/>
      <stop offset=".33" stop-color="#fef6fc"/>
      <stop offset=".39" stop-color="#fff"/>
      <stop offset=".44" stop-color="#fdecfa"/>
      <stop offset=".53" stop-color="#f9cbf1"/>
      <stop offset=".63" stop-color="#f7b1e9"/>
      <stop offset=".73" stop-color="#f59ee4"/>
      <stop offset=".83" stop-color="#f493e1"/>
      <stop offset=".95" stop-color="#f490e1"/>
    </linearGradient>
    <linearGradient id="Degradado_sin_nombre_59" data-name="Degradado sin nombre 59" x1="0" y1="107.16" x2="46.29" y2="107.16" gradientUnits="userSpaceOnUse">
      <stop offset="0" stop-color="#f490e1"/>
      <stop offset=".11" stop-color="#f8b9ec"/>
      <stop offset=".23" stop-color="#fbdff6"/>
      <stop offset=".33" stop-color="#fef6fc"/>
      <stop offset=".39" stop-color="#fff"/>
      <stop offset=".48" stop-color="#fef9fd"/>
      <stop offset=".6" stop-color="#fce8f8"/>
      <stop offset=".73" stop-color="#f9ccf1"/>
      <stop offset=".87" stop-color="#f6a6e6"/>
      <stop offset=".95" stop-color="#f490e1"/>
    </linearGradient>
    <linearGradient id="Degradado_sin_nombre_58-2" data-name="Degradado sin nombre 58" x1="99.24" y1="54.34" x2="134.46" y2="54.34" gradientTransform="translate(226) rotate(-180) scale(1 -1)" xlink:href="#Degradado_sin_nombre_58"/>
    <linearGradient id="Degradado_sin_nombre_59-2" data-name="Degradado sin nombre 59" x1="93.71" y1="107.16" x2="140" y2="107.16" gradientTransform="translate(226) rotate(-180) scale(1 -1)" xlink:href="#Degradado_sin_nombre_59"/>
    <linearGradient id="Degradado_sin_nombre_106" data-name="Degradado sin nombre 106" x1="12.82" y1="53.87" x2="120.58" y2="53.87" gradientUnits="userSpaceOnUse">
      <stop offset="0" stop-color="#f489e0"/>
      <stop offset=".05" stop-color="#f59ae4"/>
      <stop offset=".19" stop-color="#f9c5ef"/>
      <stop offset=".32" stop-color="#fce4f8"/>
      <stop offset=".42" stop-color="#fef8fd"/>
      <stop offset=".5" stop-color="#fff"/>
      <stop offset=".57" stop-color="#fef9fd"/>
      <stop offset=".67" stop-color="#fce8f9"/>
      <stop offset=".79" stop-color="#faccf1"/>
      <stop offset=".92" stop-color="#f6a6e7"/>
      <stop offset="1" stop-color="#f489e0"/>
    </linearGradient>
  </defs>
  <path class="cls-2" d="m13.19,53.19c0-17.27,9.04-32.43,22.64-41.01.72-.45.38-1.57-.47-1.57h-7.24c-1.9,0-3.77.67-5.15,1.98C12.24,22.81,5.53,37.21,5.53,53.19c0,17.83,8.35,33.66,21.31,43.94.79.63,1.79.95,2.8.95h10.37c.77-.01,1.02-1.05.33-1.39-16.08-7.88-27.16-24.39-27.16-43.5Z"/>
  <polygon class="cls-1" points="21.05 82.3 0 119.25 24.3 113.94 24.93 132.02 46.29 101.25 21.05 82.3"/>
  <path class="cls-4" d="m119.09,53.19c0-17.27-9.04-32.43-22.64-41.01-.72-.45-.38-1.57.47-1.57h7.24c1.9,0,3.77.67,5.15,1.98,10.73,10.22,17.44,24.61,17.44,40.6,0,17.83-8.35,33.66-21.31,43.94-.79.63-1.79.95-2.8.95h-10.37c-.77-.01-1.02-1.05-.33-1.39,16.08-7.88,27.16-24.39,27.16-43.5Z"/>
  <polygon class="cls-3" points="111.24 82.3 132.29 119.25 107.98 113.94 107.36 132.02 86 101.25 111.24 82.3"/>
  <path class="cls-5" d="m66.73,0c29.77.04,53.88,24.16,53.85,53.9-.03,29.76-24.18,53.89-53.9,53.85-29.76-.04-53.88-24.17-53.85-53.9C12.85,24.09,37-.04,66.73,0Zm-.03,103.44c27.36,0,49.54-22.16,49.57-49.53.03-27.35-22.1-49.52-49.5-49.59-27.37-.07-49.66,22.2-49.63,49.59.03,27.36,22.21,49.53,49.56,49.53Z"/>
</svg>