<?xml version="1.0" encoding="UTF-8"?>
<svg id="Capa_1" data-name="Capa 1" xmlns="http://www.w3.org/2000/svg" xmlns:xlink="http://www.w3.org/1999/xlink" viewBox="0 0 172.46 172.86">
  <defs>
    <style>
      .cls-1 {
        fill: url(#Degradado_sin_nombre_59-6);
      }

      .cls-1, .cls-2, .cls-3, .cls-4, .cls-5, .cls-6, .cls-7, .cls-8, .cls-9 {
        stroke-width: 0px;
      }

      .cls-2 {
        fill: url(#Degradado_sin_nombre_59);
      }

      .cls-3 {
        fill: url(#Degradado_sin_nombre_59-5);
      }

      .cls-4 {
        fill: url(#Degradado_sin_nombre_59-3);
      }

      .cls-5 {
        fill: url(#Degradado_sin_nombre_59-2);
      }

      .cls-6 {
        fill: url(#Degradado_sin_nombre_106);
      }

      .cls-7 {
        fill: url(#Degradado_sin_nombre_59-7);
      }

      .cls-8 {
        fill: url(#Degradado_sin_nombre_59-4);
      }

      .cls-9 {
        fill: url(#Degradado_sin_nombre_59-8);
      }
    </style>
    <linearGradient id="Degradado_sin_nombre_59" data-name="Degradado sin nombre 59" x1="248.45" y1="25.72" x2="271.11" y2="25.72" gradientTransform="translate(-87.99 185.28) rotate(-38.38)" gradientUnits="userSpaceOnUse">
      <stop offset="0" stop-color="#f490e1"/>
      <stop offset=".11" stop-color="#f8b9ec"/>
      <stop offset=".23" stop-color="#fbdff6"/>
      <stop offset=".33" stop-color="#fef6fc"/>
      <stop offset=".39" stop-color="#fff"/>
      <stop offset=".48" stop-color="#fef9fd"/>
      <stop offset=".6" stop-color="#fce8f8"/>
      <stop offset=".73" stop-color="#f9ccf1"/>
      <stop offset=".87" stop-color="#f6a6e6"/>
      <stop offset=".95" stop-color="#f490e1"/>
    </linearGradient>
    <linearGradient id="Degradado_sin_nombre_59-2" data-name="Degradado sin nombre 59" x1="518.41" y1="137.82" x2="541.07" y2="137.82" gradientTransform="translate(536.3 279.26) rotate(-139.96) scale(1 -1)" xlink:href="#Degradado_sin_nombre_59"/>
    <linearGradient id="Degradado_sin_nombre_59-3" data-name="Degradado sin nombre 59" x1="82.04" y1="235.84" x2="104.7" y2="235.84" gradientTransform="translate(-87.99 255.21) rotate(38.38) scale(1 -1)" xlink:href="#Degradado_sin_nombre_59"/>
    <linearGradient id="Degradado_sin_nombre_59-4" data-name="Degradado sin nombre 59" x1="346" y1="343.04" x2="368.65" y2="343.04" gradientTransform="translate(536.3 161.24) rotate(139.96)" xlink:href="#Degradado_sin_nombre_59"/>
    <linearGradient id="Degradado_sin_nombre_59-5" data-name="Degradado sin nombre 59" x1="112.44" y1="93.37" x2="154.24" y2="93.37" gradientTransform="translate(-6.95 18.63) rotate(90) scale(1 -1)" xlink:href="#Degradado_sin_nombre_59"/>
    <linearGradient id="Degradado_sin_nombre_59-6" data-name="Degradado sin nombre 59" x1="587.54" y1="92.99" x2="629.33" y2="92.99" gradientTransform="translate(-6.95 629.33) rotate(-90)" xlink:href="#Degradado_sin_nombre_59"/>
    <linearGradient id="Degradado_sin_nombre_59-7" data-name="Degradado sin nombre 59" x1="464.33" y1="55.13" x2="506.13" y2="55.13" gradientTransform="translate(506.13 31.49) rotate(-180) scale(1 -1)" xlink:href="#Degradado_sin_nombre_59"/>
    <linearGradient id="Degradado_sin_nombre_59-8" data-name="Degradado sin nombre 59" x1="235.24" y1="54.75" x2="277.04" y2="54.75" gradientTransform="translate(-104.58 31.49)" xlink:href="#Degradado_sin_nombre_59"/>
    <linearGradient id="Degradado_sin_nombre_106" data-name="Degradado sin nombre 106" x1="29.6" y1="85.86" x2="143.23" y2="85.86" gradientUnits="userSpaceOnUse">
      <stop offset="0" stop-color="#f489e0"/>
      <stop offset=".05" stop-color="#f59ae4"/>
      <stop offset=".19" stop-color="#f9c5ef"/>
      <stop offset=".32" stop-color="#fce4f8"/>
      <stop offset=".42" stop-color="#fef8fd"/>
      <stop offset=".5" stop-color="#fff"/>
      <stop offset=".57" stop-color="#fef9fd"/>
      <stop offset=".67" stop-color="#fce8f9"/>
      <stop offset=".79" stop-color="#faccf1"/>
      <stop offset=".92" stop-color="#f6a6e7"/>
      <stop offset="1" stop-color="#f489e0"/>
    </linearGradient>
  </defs>
  <polygon class="cls-2" points="123.23 51.82 117.19 36.49 141 37.75 135.78 59.97 123.23 51.82"/>
  <polygon class="cls-5" points="50.21 51.91 56.69 36.77 32.86 37.34 37.43 59.69 50.21 51.91"/>
  <polygon class="cls-4" points="123.23 120.64 117.19 135.97 141 134.71 135.78 112.49 123.23 120.64"/>
  <polygon class="cls-8" points="50.21 120.55 56.69 135.69 32.86 135.12 37.43 112.77 50.21 120.55"/>
  <polygon class="cls-3" points="86.42 137.66 51.42 131.06 88.28 172.86 121.41 131.06 86.42 137.66"/>
  <polygon class="cls-1" points="86.04 35.2 51.05 41.8 87.9 0 121.04 41.8 86.04 35.2"/>
  <polygon class="cls-7" points="35.2 86.62 41.8 51.62 0 88.48 41.8 121.61 35.2 86.62"/>
  <polygon class="cls-9" points="137.26 86.24 130.66 51.25 172.46 88.11 130.66 121.24 137.26 86.24"/>
  <path class="cls-6" d="m86.49,29.04c-31.37-.08-56.92,25.45-56.89,56.85.03,31.36,25.46,56.78,56.81,56.78,31.36,0,56.78-25.41,56.82-56.78.03-31.35-25.34-56.77-56.74-56.85Zm-.45,106.38c-27.35,0-49.54-22.17-49.56-49.53-.03-27.39,22.26-49.66,49.63-49.59,27.4.07,49.53,22.24,49.5,49.59-.03,27.37-22.21,49.53-49.57,49.53Z"/>
</svg>