<?xml version="1.0" encoding="UTF-8"?>
<svg id="Capa_1" data-name="Capa 1" xmlns="http://www.w3.org/2000/svg" xmlns:xlink="http://www.w3.org/1999/xlink" viewBox="0 0 132.29 132.02">
  <defs>
    <style>
      .cls-1 {
        fill: url(#Degradado_sin_nombre_156);
      }

      .cls-1, .cls-2, .cls-3, .cls-4, .cls-5 {
        stroke-width: 0px;
      }

      .cls-2 {
        fill: url(#Degradado_sin_nombre_148);
      }

      .cls-3 {
        fill: url(#Degradado_sin_nombre_214);
      }

      .cls-4 {
        fill: url(#Degradado_sin_nombre_143-2);
      }

      .cls-5 {
        fill: url(#Degradado_sin_nombre_143);
      }
    </style>
    <linearGradient id="Degradado_sin_nombre_143" data-name="Degradado sin nombre 143" x1="5.53" y1="54.34" x2="40.75" y2="54.34" gradientUnits="userSpaceOnUse">
      <stop offset="0" stop-color="#009ee9"/>
      <stop offset=".08" stop-color="#42b7ee"/>
      <stop offset=".16" stop-color="#84d0f4"/>
      <stop offset=".24" stop-color="#b9e4f8"/>
      <stop offset=".31" stop-color="#dff2fc"/>
      <stop offset=".36" stop-color="#f6fbfe"/>
      <stop offset=".39" stop-color="#fff"/>
      <stop offset=".41" stop-color="#eef8fd"/>
      <stop offset=".47" stop-color="#b7e3f8"/>
      <stop offset=".54" stop-color="#86d1f4"/>
      <stop offset=".6" stop-color="#5dc1f1"/>
      <stop offset=".66" stop-color="#3bb4ee"/>
      <stop offset=".73" stop-color="#21aaeb"/>
      <stop offset=".8" stop-color="#0ea3ea"/>
      <stop offset=".87" stop-color="#039fe9"/>
      <stop offset=".95" stop-color="#009ee9"/>
    </linearGradient>
    <linearGradient id="Degradado_sin_nombre_156" data-name="Degradado sin nombre 156" x1="0" y1="107.16" x2="46.29" y2="107.16" gradientUnits="userSpaceOnUse">
      <stop offset="0" stop-color="#009ee9"/>
      <stop offset=".08" stop-color="#42b7ee"/>
      <stop offset=".16" stop-color="#84d0f4"/>
      <stop offset=".24" stop-color="#b9e4f8"/>
      <stop offset=".31" stop-color="#dff2fc"/>
      <stop offset=".36" stop-color="#f6fbfe"/>
      <stop offset=".39" stop-color="#fff"/>
      <stop offset=".45" stop-color="#f9fcfe"/>
      <stop offset=".51" stop-color="#e8f6fd"/>
      <stop offset=".59" stop-color="#ccebfa"/>
      <stop offset=".68" stop-color="#a5dcf7"/>
      <stop offset=".77" stop-color="#73caf2"/>
      <stop offset=".87" stop-color="#37b3ed"/>
      <stop offset=".95" stop-color="#009ee9"/>
    </linearGradient>
    <linearGradient id="Degradado_sin_nombre_143-2" data-name="Degradado sin nombre 143" x1="99.24" y1="54.34" x2="134.46" y2="54.34" gradientTransform="translate(226) rotate(-180) scale(1 -1)" xlink:href="#Degradado_sin_nombre_143"/>
    <linearGradient id="Degradado_sin_nombre_214" data-name="Degradado sin nombre 214" x1="93.71" y1="107.16" x2="140" y2="107.16" gradientTransform="translate(226) rotate(-180) scale(1 -1)" gradientUnits="userSpaceOnUse">
      <stop offset="0" stop-color="#009ee9"/>
      <stop offset=".08" stop-color="#42b7ee"/>
      <stop offset=".16" stop-color="#84d0f4"/>
      <stop offset=".24" stop-color="#b9e4f8"/>
      <stop offset=".31" stop-color="#dff2fc"/>
      <stop offset=".36" stop-color="#f6fbfe"/>
      <stop offset=".39" stop-color="#fff"/>
      <stop offset=".45" stop-color="#f9fcfe"/>
      <stop offset=".51" stop-color="#e8f6fd"/>
      <stop offset=".59" stop-color="#ccebfa"/>
      <stop offset=".68" stop-color="#a5dcf7"/>
      <stop offset=".77" stop-color="#73caf2"/>
      <stop offset=".87" stop-color="#37b3ed"/>
      <stop offset=".95" stop-color="#009ee9"/>
    </linearGradient>
    <radialGradient id="Degradado_sin_nombre_148" data-name="Degradado sin nombre 148" cx="66.7" cy="53.87" fx="66.7" fy="53.87" r="53.88" gradientUnits="userSpaceOnUse">
      <stop offset=".93" stop-color="#009ee9"/>
      <stop offset=".94" stop-color="#32b1ed"/>
      <stop offset=".96" stop-color="#7accf3"/>
      <stop offset=".97" stop-color="#b3e2f8"/>
      <stop offset=".98" stop-color="#dcf1fc"/>
      <stop offset=".99" stop-color="#f5fbfe"/>
      <stop offset="1" stop-color="#fff"/>
    </radialGradient>
  </defs>
  <path class="cls-5" d="m13.19,53.19c0-17.27,9.04-32.43,22.64-41.01.72-.45.38-1.57-.47-1.57h-7.24c-1.9,0-3.77.67-5.15,1.98C12.24,22.81,5.53,37.21,5.53,53.19c0,17.83,8.35,33.66,21.31,43.94.79.63,1.79.95,2.8.95h10.37c.77-.01,1.02-1.05.33-1.39-16.08-7.88-27.16-24.39-27.16-43.5Z"/>
  <polygon class="cls-1" points="21.05 82.3 0 119.25 24.3 113.94 24.93 132.02 46.29 101.25 21.05 82.3"/>
  <path class="cls-4" d="m119.09,53.19c0-17.27-9.04-32.43-22.64-41.01-.72-.45-.38-1.57.47-1.57h7.24c1.9,0,3.77.67,5.15,1.98,10.73,10.22,17.44,24.61,17.44,40.6,0,17.83-8.35,33.66-21.31,43.94-.79.63-1.79.95-2.8.95h-10.37c-.77-.01-1.02-1.05-.33-1.39,16.08-7.88,27.16-24.39,27.16-43.5Z"/>
  <polygon class="cls-3" points="111.24 82.3 132.29 119.25 107.98 113.94 107.36 132.02 86 101.25 111.24 82.3"/>
  <path class="cls-2" d="m66.73,0c29.77.04,53.88,24.16,53.85,53.9-.03,29.76-24.18,53.89-53.9,53.85-29.76-.04-53.88-24.17-53.85-53.9C12.85,24.09,37-.04,66.73,0Zm-.03,103.44c27.36,0,49.54-22.16,49.57-49.53.03-27.35-22.1-49.52-49.5-49.59-27.37-.07-49.66,22.2-49.63,49.59.03,27.36,22.21,49.53,49.56,49.53Z"/>
</svg>