<?xml version="1.0" encoding="UTF-8"?>
<svg id="Capa_1" data-name="Capa 1" xmlns="http://www.w3.org/2000/svg" xmlns:xlink="http://www.w3.org/1999/xlink" viewBox="0 0 107.75 118.71">
  <defs>
    <style>
      .cls-1 {
        fill: #d36ac4;
      }

      .cls-1, .cls-2, .cls-3, .cls-4 {
        stroke-width: 0px;
      }

      .cls-2 {
        fill: #e870d1;
      }

      .cls-3 {
        fill: #f473d5;
      }

      .cls-4 {
        fill: url(#Degradado_sin_nombre_106);
      }
    </style>
    <linearGradient id="Degradado_sin_nombre_106" data-name="Degradado sin nombre 106" x1="0" y1="64.83" x2="107.75" y2="64.83" gradientUnits="userSpaceOnUse">
      <stop offset="0" stop-color="#f489e0"/>
      <stop offset=".05" stop-color="#f59ae4"/>
      <stop offset=".19" stop-color="#f9c5ef"/>
      <stop offset=".32" stop-color="#fce4f8"/>
      <stop offset=".42" stop-color="#fef8fd"/>
      <stop offset=".5" stop-color="#fff"/>
      <stop offset=".57" stop-color="#fef9fd"/>
      <stop offset=".67" stop-color="#fce8f9"/>
      <stop offset=".79" stop-color="#faccf1"/>
      <stop offset=".92" stop-color="#f6a6e7"/>
      <stop offset="1" stop-color="#f489e0"/>
    </linearGradient>
  </defs>
  <path class="cls-4" d="m53.9,10.96c29.77.04,53.88,24.16,53.85,53.9-.03,29.76-24.18,53.89-53.9,53.85C24.09,118.67-.03,94.53,0,64.81.03,35.05,24.18,10.92,53.9,10.96Zm-.03,103.44c27.36,0,49.54-22.16,49.57-49.53.03-27.35-22.1-49.52-49.5-49.59-27.37-.07-49.66,22.2-49.63,49.59.03,27.36,22.21,49.53,49.56,49.53Z"/>
  <g>
    <path class="cls-2" d="m48.01,15s-4.33,9.73-4.17,15.11c.01.39-.48.57-.73.26l-3.66-4.52-6.4,2.53c-.35.14-.7-.21-.55-.56,1.32-3.12,6.29-13.56,15.52-12.83Z"/>
    <path class="cls-3" d="m48.03,8.79s-3.77-3.19-6.83-5.62-6.64-4.47-8.55-2.17-2.55,15.35-.51,17.95c0,0,6.77,2.86,15.89-3.53v-6.64Z"/>
    <path class="cls-1" d="m47.48,15.02s-6.28,2.87-15.35,3.94c0,0,2.7,1.7,9.38-.23,6.3-1.81,7.11-4.42,7.11-4.42l-1.14.71Z"/>
    <path class="cls-2" d="m47.46,11.26s-6.14-3.15-10.48.03c0,0,8.75.09,10.48,1.54v-1.57Z"/>
    <path class="cls-2" d="m55.48,15s4.33,9.73,4.17,15.11c-.01.39.48.57.73.26l3.66-4.52,6.4,2.53c.35.14.7-.21.55-.56-1.32-3.12-6.29-13.56-15.52-12.83Z"/>
    <path class="cls-3" d="m55.47,8.79s3.77-3.19,6.83-5.62c3.06-2.43,6.64-4.47,8.55-2.17,1.91,2.3,2.55,15.35.51,17.95,0,0-6.77,2.86-15.89-3.53v-6.64Z"/>
    <path class="cls-1" d="m56.02,15.02s6.28,2.87,15.35,3.94c0,0-2.7,1.7-9.38-.23-6.3-1.81-7.11-4.42-7.11-4.42l1.14.71Z"/>
    <path class="cls-2" d="m47.57,8.79s3.06-2.68,8.23,0c-.91-.11,2.49,2.04,0,6.64,0,0-4.02,2.17-8.23,0,0,0-1.91-3.06,0-6.64Z"/>
    <path class="cls-2" d="m56.04,11.26s6.14-3.15,10.48.03c0,0-8.75.09-10.48,1.54v-1.57Z"/>
  </g>
</svg>