<?xml version="1.0" encoding="UTF-8"?>
<svg id="Capa_1" data-name="Capa 1" xmlns="http://www.w3.org/2000/svg" viewBox="0 0 69.74 63.91">
  <defs>
    <style>
      .cls-1 {
        fill: #f4b8a0;
      }

      .cls-1, .cls-2, .cls-3, .cls-4, .cls-5, .cls-6 {
        stroke-width: 0px;
      }

      .cls-7 {
        fill: #e9ecef;
        font-family: MontserratRoman-Bold, Montserrat;
        font-size: 4.62px;
        font-variation-settings: 'wght' 700;
        font-weight: 700;
        letter-spacing: .1em;
      }

      .cls-2 {
        opacity: .2;
      }

      .cls-3 {
        fill: #333;
      }

      .cls-4 {
        fill: #3939c4;
      }

      .cls-5 {
        fill: #38ba4a;
      }

      .cls-6 {
        fill: #ffc700;
      }
    </style>
  </defs>
  <path class="cls-1" d="m25.37,51.45s1.67,5.5-.44,7.22c-2.11,1.72-4.7,3.05-4.7,3.05l-1.23-1.45-.81-2.37,2.49-6.44h4.7Z"/>
  <path class="cls-1" d="m20.31,24.63s4.27,10.3-1.32,10.99c-3.86.48-6.28-3.18-6.28-3.18,0,0-1.89,1.05-2.55-1.17s1.44-2.38,2.19-1.1c0,0-1.29-5.9,3.18-6.44,4.48-.54,4.78.9,4.78.9Z"/>
  <path class="cls-1" d="m18.06,35.04s-1.75,4.69,1.75,5.76c0,0-.73,4.52-4.63,3.28-3.9-1.24-4.92-3.2-4.92-3.2,0,0,2.2-1.21,2.37-2.05s.68-6.05.68-6.05l4.75,2.26Z"/>
  <path class="cls-5" d="m8.19,45.01c3.33,7.74.11,12.15.11,12.15H0c1.07-.4,2.32-10.79,3.5-13.16s6.84-3.45,6.84-3.45c0,0,2.83,3.04,5.4,2.98s3.76-2.98,3.76-2.98c0,0,5.05.1,4.8,2.15s2.53,11.98,2.53,11.98l-5.76,1.02.1-10.31.64,18.32H7.18l.51-9.58"/>
  <path class="cls-3" d="m12.46,30.56s0-.07,0-.2c-.02-.63-.03-2.57.66-3.95.83-1.67,1.4-2.4,1.4-2.4,0,0,3.94,2.33,6.38,2.32s2.5-.92,2.5-.92c0,0-.01-4.11-4.87-4.11s-5.5,1.76-7.36,1.95-3.72,3.25-3.07,5.2,1.56,4.23,5,6.44l.18-1.73-.57-.71s-1.29.68-1.83-.99c-.54-1.67.79-1.8,1.11-1.67.28.11.46.78.46.78Z"/>
  <polyline class="cls-4" points="21.55 28.74 20.89 26.14 20.72 25.44"/>
  <path class="cls-2" d="m17.88,35.65s-2.76-.88-4.6-2.5c0,0,1.96,2.74,4.39,3.59l.21-1.08Z"/>
  <path class="cls-2" d="m10.07,48.37s-1.69,8.59-2.47,9.87l1.03.07s.95-3.57,1.44-9.94Z"/>
  <path class="cls-2" d="m20.95,46.39s.74,8.73.53,9.38l1.01-.22s-.26-2.89-1.55-9.16Z"/>
  <path class="cls-1" d="m1.65,57.16s-1,9.52,6.68,5.95c7.68-3.57,10.81-6.06,10.81-6.06,0,0,1.51-.19,3.51-2.01,0,0,1.58-1.44,1.54-2.18s-3.05,1.74-3.05,1.74c0,0,3.26-2.9,2.92-3.26s-3.42,2.12-3.42,2.12c0,0,3.06-2.65,3.03-2.99s-1.95.4-3.66,2.19c0,0,2.86-2.35,2.8-2.97s-3.47,2.4-3.47,2.4c0,0,.43-2.82-.25-2.87s-.93,2.35-.93,2.35l-.4,1.23s-.96,1.39-3.87,3.06c-2.92,1.67-6,2.17-6,2.17l.13-.87H1.65Z"/>
  <path class="cls-6" d="m32.75,19.39c-.75-1.27-1.23-2.66-1.36-4.13C30.71,7.88,38.73,1.1,49.31.12s19.71,4.22,20.39,11.61-7.34,14.17-17.92,15.15c-5.14.47-9.94-.51-13.59-2.49l-14.67,6.18,9.23-11.17Z"/>
  <text class="cls-7" transform="translate(35.15 17.23) rotate(-5.28)"><tspan x="0" y="0">WELCOME!!</tspan></text>
</svg>