<?xml version="1.0" encoding="UTF-8"?>
<svg id="Capa_1" data-name="Capa 1" xmlns="http://www.w3.org/2000/svg" viewBox="0 0 28.58 33.67">
  <defs>
    <style>
      .cls-1 {
        fill: none;
        stroke: #ff6e0b;
        stroke-miterlimit: 10;
        stroke-width: .75px;
      }
    </style>
  </defs>
  <polygon class="cls-1" points="8.13 7.81 9.96 7.81 12.4 .38 10.76 .38 9.02 5.64 7.33 .38 5.73 .38 3.98 5.6 2.3 .38 .52 .38 2.96 7.81 4.8 7.81 6.48 2.77 8.13 7.81"/>
  <polygon class="cls-1" points="20.33 6.43 16.29 6.43 16.29 4.71 19.74 4.71 19.74 3.36 16.29 3.36 16.29 1.76 20.2 1.76 20.2 .38 14.58 .38 14.58 7.81 20.33 7.81 20.33 6.43"/>
  <polygon class="cls-1" points="24.5 6.41 24.5 .38 22.77 .38 22.77 7.81 28.2 7.81 28.2 6.41 24.5 6.41"/>
  <path class="cls-1" d="m6.96,19.6c.36.35.79.61,1.28.8.49.19,1.02.28,1.6.28.65,0,1.24-.11,1.76-.34.52-.23.96-.56,1.32-.99l-1.12-1.02c-.25.29-.53.51-.84.66-.32.15-.66.23-1.02.23-.35,0-.67-.06-.96-.18-.29-.12-.54-.28-.75-.49s-.38-.46-.49-.75c-.12-.29-.18-.61-.18-.97s.06-.68.18-.97c.12-.29.28-.54.49-.75s.46-.38.75-.49c.29-.12.61-.18.96-.18.37,0,.71.07,1.02.22.31.15.6.37.84.66l1.12-1.02c-.35-.43-.79-.76-1.32-.98-.52-.22-1.11-.33-1.75-.33-.57,0-1.11.09-1.6.28-.49.19-.92.45-1.29.8-.36.35-.65.75-.85,1.22-.2.47-.3.98-.3,1.54s.1,1.07.3,1.54.48.87.84,1.22Z"/>
  <path class="cls-1" d="m20.33,20.4c.49-.19.92-.45,1.29-.8.37-.35.65-.76.85-1.23.2-.47.3-.98.3-1.53s-.1-1.07-.3-1.54c-.2-.47-.49-.87-.85-1.22-.37-.35-.8-.61-1.29-.8-.49-.19-1.03-.28-1.62-.28s-1.13.1-1.62.29c-.49.19-.92.46-1.29.81-.37.35-.65.75-.85,1.22-.2.46-.3.98-.3,1.53s.1,1.06.3,1.53.49.87.85,1.22c.37.35.8.62,1.3.81.5.19,1.04.29,1.62.29s1.12-.09,1.61-.28Zm-2.54-1.35c-.28-.12-.53-.28-.74-.5-.21-.22-.37-.47-.49-.75-.12-.29-.18-.61-.18-.96s.06-.67.18-.96c.12-.29.28-.54.49-.75.21-.22.45-.38.74-.5.28-.12.59-.18.92-.18s.64.06.92.18c.28.12.53.28.74.5.21.22.38.47.49.75.12.29.18.61.18.96s-.06.67-.18.96c-.12.29-.28.54-.49.75-.21.22-.46.38-.74.5-.28.12-.59.18-.92.18s-.64-.06-.92-.18Z"/>
  <polygon class="cls-1" points="10.23 30.48 7.44 25.86 6.02 25.86 6.02 33.3 7.62 33.3 7.62 28.91 9.81 32.5 10.58 32.5 12.77 28.86 12.78 33.3 14.39 33.3 14.39 25.86 12.95 25.86 10.23 30.48"/>
  <polygon class="cls-1" points="18.92 30.2 22.37 30.2 22.37 28.85 18.92 28.85 18.92 27.24 22.83 27.24 22.83 25.86 17.21 25.86 17.21 33.3 22.97 33.3 22.97 31.92 18.92 31.92 18.92 30.2"/>
</svg>