<?xml version="1.0" encoding="UTF-8"?>
<svg id="Capa_1" data-name="Capa 1" xmlns="http://www.w3.org/2000/svg" viewBox="0 0 404.29 408.32">
  <defs>
    <style>
      .cls-1 {
        font-size: 13.42px;
      }

      .cls-1, .cls-2, .cls-3, .cls-4 {
        font-family: MontserratRoman-Bold, Montserrat;
        font-variation-settings: 'wght' 700;
        font-weight: 700;
      }

      .cls-1, .cls-2, .cls-5 {
        fill: #ff6e0b;
      }

      .cls-6 {
        fill: none;
        stroke: #39bdf7;
        stroke-miterlimit: 10;
        stroke-width: 3px;
      }

      .cls-2 {
        font-size: 13.42px;
      }

      .cls-3 {
        font-size: 23.89px;
      }

      .cls-3, .cls-7 {
        fill: #bc0613;
      }

      .cls-8 {
        fill: #46f964;
      }

      .cls-8, .cls-9, .cls-10, .cls-7, .cls-5, .cls-11 {
        stroke-width: 0px;
      }

      .cls-9, .cls-4 {
        fill: #fff;
      }

      .cls-10 {
        fill: #39bdf7;
      }

      .cls-4 {
        font-size: 13.42px;
      }

      .cls-11 {
        fill: #ffc700;
      }
    </style>
  </defs>
  <g>
    <circle class="cls-8" cx="294.53" cy="120.39" r="46.2"/>
    <polyline class="cls-9" points="286.6 144.8 271.26 133.64 270.36 124.53 285.63 135.7"/>
    <polyline class="cls-9" points="285.63 135.7 316.56 94.58 317.46 103.69 286.6 144.8"/>
  </g>
  <g>
    <polygon class="cls-11" points="198.96 29.23 202.87 0 220.81 22.41 249.63 6.48 242.55 33.56 274.06 36.51 245.85 51.23 249.63 83.61 226.42 63 211.11 83.61 202.87 61.24 172.25 70.07 188.15 45.34 169.31 24.73 198.96 29.23"/>
    <text class="cls-4" transform="translate(193.89 46.04) rotate(6.99)"><tspan x="0" y="0">VERBS</tspan></text>
  </g>
  <g>
    <path class="cls-10" d="m176.34,138.49c-1.39-1.69-2.4-3.62-2.93-5.76-2.67-10.7,7.59-22.46,22.9-26.28,15.32-3.82,29.89,1.76,32.56,12.45,2.67,10.7-7.59,22.46-22.9,26.28-7.44,1.85-14.71,1.49-20.52-.6l-20.15,12.38,11.04-18.48Z"/>
    <circle class="cls-9" cx="190.24" cy="127.63" r="3.27"/>
    <circle class="cls-9" cx="201.17" cy="124.9" r="3.27"/>
    <circle class="cls-9" cx="212.29" cy="122.13" r="3.27"/>
  </g>
  <g>
    <rect class="cls-6" x="104.15" y="72.41" width="44.34" height="44.34" transform="translate(29.73 -30.21) rotate(15.44)"/>
    <text class="cls-3" transform="translate(116.33 98.83) rotate(15.44)"><tspan x="0" y="0">X</tspan></text>
  </g>
  <text class="cls-1" transform="translate(204.41 197.6) rotate(-9.03)"><tspan x="0" y="0">LISTENING</tspan></text>
  <text class="cls-2" transform="translate(107.3 32.76) rotate(15.44)"><tspan x="0" y="0">WRITING</tspan></text>
  <text class="cls-2" transform="translate(74.91 159.26) rotate(15.44)"><tspan x="0" y="0">VOCABULARY</tspan></text>
  <circle class="cls-10" cx="90.13" cy="48.93" r="4.72"/>
  <circle class="cls-5" cx="317.46" cy="187.87" r="4.72"/>
  <circle class="cls-5" cx="283.2" cy="58.36" r="4.72"/>
  <circle class="cls-7" cx="215.56" cy="164" r="4.72"/>
  <circle class="cls-11" cx="137.15" cy="197.72" r="4.72"/>
  <circle class="cls-11" cx="176.38" cy="94.43" r="4.72"/>
  <circle class="cls-8" cx="94.85" cy="134.67" r="4.72"/>
  <circle class="cls-10" cx="370.69" cy="121.63" r="4.72"/>
  <g>
    <path class="cls-10" d="m380.88,384.83c-55.21-24.42-111.21-25.89-168.11-6.69,6-11.39,33.48-27.58,57.68-33.87,14.23-3.7,33.65-7.27,68.36-3.55-.91-6.35-1.75-12.5-2.68-18.64-5.22-34.58-10.51-69.14-15.61-103.74-.46-3.14-1.65-4.54-4.66-5.31-41.39-10.55-76.98.13-107.43,29.36-1.41,1.35-1.95,4.14-2.03,6.28-1.21,34.14-2.27,68.29-3.38,102.44-.09,2.72-.26,5.43-1.39,8.09-.43-11.59-.89-23.19-1.27-34.78-.81-24.99-1.65-49.97-2.3-74.96-.1-3.77-1.22-6.53-4.04-9.1-30.17-27.49-64.85-37.48-104.87-27.57-3.67.91-5.02,2.61-5.56,6.27-5.95,40.35-12.08,80.67-18.25,121.64,47.47-5.05,91.18,1.75,126.48,36.91-56.99-18.67-113.02-17.26-168.75,7.35,1.89-10.19,3.66-19.94,5.51-29.67,7.52-39.75,15.1-79.48,22.53-119.25.67-3.61,1.89-6.02,5.66-7.17,5.4-1.65,10.76-3.56,15.93-5.82,1.74-.76,3.78-2.74,4.12-4.47,2.3-11.63,2.13-11.86,13.93-13.82,33.91-5.63,65.78-1.03,94.04,19.89,6.12,4.53,11.55,10,18.46,16.06.58-.97,1.21-2.61,2.33-3.76,24.78-25.59,55.39-35.98,90.47-34.05,8.61.47,17.16,2.22,25.73,3.38,2.81.38,4.51,1.62,4.44,4.81-.16,7.82,2.65,12.83,11.36,14.12,10.81,1.61,15.59,8.03,17.55,19.52,7.86,46.11,17.06,91.98,25.75,137.95.12.63.01,1.29.01,2.15Z"/>
    <path class="cls-11" d="m0,408.14c12.83-47.43,25.55-94.46,38.27-141.5.32.07.65.14.97.22-9.44,43.48-18.88,86.97-28.52,131.35,16.65-2.12,32.69-4.16,48.74-6.2-.01-.13-.02-.26-.03-.39H26.62c4.11-1.63,7.36-3.05,10.7-4.22,34.37-12.02,69.71-17.56,106.1-14.99,9.77.69,19.47,2.54,29.15,4.2,2.04.35,4.24,1.85,5.64,3.46,11.65,13.31,35.54,13.52,47.45.44,1.65-1.81,4.1-3.52,6.44-3.99,49.14-9.91,96.74-3.76,143.15,14.13.44.17.82.51,1.48.94h-32.63l-.05.31c16.22,2.07,32.44,4.15,49.44,6.32-9.61-44.25-19.06-87.75-28.51-131.26.32-.08.65-.16.97-.24,12.71,46.97,25.43,93.94,38.32,141.58-6.96-.49-13.39-.9-19.81-1.4-41.36-3.25-82.71-6.51-124.07-9.78-1.83-.14-3.65-.35-5.47-.52-11.67-1.08-22.75-2.01-34.23,4.03-15.07,7.93-30.73,4.56-45.44-3.39-2.33-1.26-5.32-2.13-7.91-1.93-36.05,2.7-72.09,5.61-108.13,8.47-18.44,1.46-36.87,2.9-55.31,4.33-1.14.09-2.29.01-3.91.01Z"/>
  </g>
</svg>