<?xml version="1.0" encoding="UTF-8"?>
<svg id="Capa_1" data-name="Capa 1" xmlns="http://www.w3.org/2000/svg" viewBox="0 0 523.89 404.3">
  <defs>
    <style>
      .cls-1 {
        fill: #f4b8a0;
      }

      .cls-1, .cls-2, .cls-3, .cls-4, .cls-5, .cls-6, .cls-7, .cls-8, .cls-9 {
        stroke-width: 0px;
      }

      .cls-2 {
        fill: #f2dac4;
      }

      .cls-3 {
        fill: #e0dfde;
      }

      .cls-4 {
        fill: #513206;
      }

      .cls-5 {
        opacity: .2;
      }

      .cls-6 {
        fill: #6d5249;
      }

      .cls-7 {
        fill: #3939c4;
      }

      .cls-8 {
        fill: #ff6e0b;
      }

      .cls-9 {
        fill: #442d04;
      }
    </style>
  </defs>
  <g>
    <rect class="cls-3" x="60.06" y="40.09" width="446.4" height="242.41"/>
    <path class="cls-7" d="m74.07,0h421.48c15.64,0,28.35,12.7,28.35,28.35v11.53H45.73v-11.53c0-15.64,12.7-28.35,28.35-28.35Z"/>
  </g>
  <path class="cls-2" d="m95.39,236.4s15.12,8.14,27.61-1.57l4.05,128.97-57.69-3.38,26.02-124.02Z"/>
  <path class="cls-1" d="m257.85,151.45s-.37-5.35,0-9.6,5.54-5.54,5.54-5.54c0,0,4.06-1.85,4.06,4.43,0,.37,0,.74,0,1.11.01,5.87.02,11.33-2.59,12.37-2.77,1.11-6.85,2.58-7.02-2.77Z"/>
  <path class="cls-1" d="m238.65,167.51s11.45-7.94,13.29-10.52c1.85-2.58,4.43-10.15,4.43-10.15l11.08-3.88s2.58-2.03,4.98-1.66c2.4.37,1.85,3.32,1.85,3.32,0,0,1.48-.74,4.06,1.05,2.58,1.79.92,4.86.92,4.86,0,0,1.48-1.85,4.06.92,2.58,2.77.74,4.62.74,4.62l3.14,1.11c3.32,2.95.74,4.06-.74,8.49-1.48,4.43-9.6,8.12-16.06,11.26-6.46,3.14-15.25-.63-15.25-.63l-2.1,6.9-14.4-15.69Z"/>
  <path class="cls-8" d="m49.34,326.24l6.06,4.93,34.96,27.13-14.86,25.21s-40.75-19.29-61.41-31.28c-20.65-11.99-5.33-25.98,0-35.98,5.33-9.99,29.32-64.63,29.32-64.63,17.32-13.99,47.73-28.65,47.73-28.65l-2.9,7.33s6.68,6.12,10.82,7.43-5.15,83.85-6.74,93.18c-1.6,9.33-17.59,23.32-17.59,23.32"/>
  <path class="cls-9" d="m91.44,91.1s-6.81-50.3-47.79-29.36c-40.99,20.95-26.41,75.3-26.41,75.3,0,0,12.02,54.95-4.92,60.41-16.94,5.46-11.47,3.44-11.47,3.44,0,0,13.66,4.17,21.86.37,0,0-5.46,7.51-15.48,13.69,0,0,48.78-13.75,62.64-57.52,13.86-43.77,15.16-65.16,15.16-65.16"/>
  <path class="cls-1" d="m124.15,101.58s44.38,83.55,0,101.82c-44.38,18.28-61.79-6.09-69.62-31.33,0,0-8.7,11.31-15.66,0-6.96-11.31-1.27-34.81,9.37-26.98,0,0-11.99-32.2,15.86-43.51,27.85-11.31,52.07-17.53,60.05,0Z"/>
  <path class="cls-4" d="m58.99,110.93s20.67,29.1,73.87,19.14l6.21,2.08s-5.42-51.19-54.05-39.88c-48.64,11.31-56.47,33.07-44.29,53.09l6.76,12.07s14.08-24.35,11.49-46.5Z"/>
  <path class="cls-1" d="m87.42,204.31s6.85,18.66,0,25.98c0,0,18.04,21.32,44.57,0,0,0-13.44-15.8-6.11-39.88,0,0-27.49,15.44-38.46,13.9Z"/>
  <path class="cls-8" d="m127.62,222.97l1.18,5.98s-8.25,8.32-8.18,8.29,0,83.41,0,83.41l2.21,46.92,65.98-5.58-23.01-97.97,97.94-85.95s-16.66-12.66-13.33-23.32l-93.28,68.22s-4.12,3.74-9.06,3.74-13.99-1.48-20.45-3.74Z"/>
  <path class="cls-3" d="m62.45,315.82l-7.05,15.35,34.44,28.01-12.8,22.66-37.43-16.59-6.07,12.17c-.61,1.23-.1,2.72,1.13,3.32l47.89,23.32c1.25.61,2.75.07,3.32-1.19l27.84-60.99c.55-1.2.05-2.62-1.12-3.22l-46.78-24c-1.25-.64-2.78-.11-3.37,1.17Z"/>
  <path class="cls-1" d="m83.68,355.97s6.32,5.73,11.39,6.09c5.07.36,10.46,0,10.46,0,0,0,5.07,1.43,1.9,3.94-3.17,2.51-9.03,2.51-9.03,2.51,0,0,6.34,1.61,6.02,4.65-.32,3.04-2.69,2.68-2.69,2.68,0,0,1.9,2.86-1.43,4.47,0,0,.63,4.54-2.22,5.05,0,0,.72,5.87-3.28,4.62-4.01-1.25-7.81-2.33-10.82-5.55-3.01-3.22-10.96-6.21-10.96-6.21l10.66-22.25Z"/>
  <polyline class="cls-6" points="267.46 155.28 315.71 48.15 319.71 48.15 275.07 150.2"/>
  <path class="cls-8" d="m89.84,359.17s-6.73,3.91-9.21,9.69c-2.48,5.79-3.59,12.96-3.59,12.96l-6.73-2.98,12.33-25.53,7.21,5.86Z"/>
  <path class="cls-5" d="m80.86,256.85s-23.58,60.66-31.52,69.39l5.9,5.29s12.52-26.16,25.62-74.68Z"/>
  <path class="cls-5" d="m124.15,203.4v7.64s-24.23,5.42-35.28-1.89c0,0,12.53,3.93,35.28-5.74Z"/>
  <polygon class="cls-5" points="165.8 264.02 160.47 254 168.07 262.03 165.8 264.02"/>
</svg>