<?xml version="1.0" encoding="UTF-8"?>
<svg id="Capa_1" data-name="Capa 1" xmlns="http://www.w3.org/2000/svg" viewBox="0 0 456.99 305.18">
  <defs>
    <style>
      .cls-1 {
        fill: #f4b8a0;
      }

      .cls-1, .cls-2, .cls-3, .cls-4, .cls-5, .cls-6, .cls-7, .cls-8 {
        stroke-width: 0px;
      }

      .cls-2 {
        fill: #359e3f;
      }

      .cls-3 {
        opacity: .2;
      }

      .cls-4 {
        fill: #333;
      }

      .cls-9 {
        font-family: MontserratRoman-Bold, Montserrat;
        font-size: 54.59px;
        font-variation-settings: 'wght' 700;
        font-weight: 700;
      }

      .cls-9, .cls-7 {
        fill: #ff6e0b;
      }

      .cls-5 {
        fill: #3939c4;
      }

      .cls-6 {
        fill: #38ba4a;
      }

      .cls-8 {
        fill: #767676;
      }
    </style>
  </defs>
  <text class="cls-9" transform="translate(0 201.33)"><tspan x="0" y="0">LISTENING</tspan></text>
  <g>
    <path class="cls-7" d="m33.72,260.68H2.69v-41.29h11.98v31.01h19.05v10.29Zm-27.95-3.08h24.87v-4.12H11.59v-31.01h-5.82v35.13Z"/>
    <path class="cls-7" d="m47.7,260.68h-11.98v-41.29h11.98v41.29Zm-8.9-3.08h5.82v-35.13h-5.82v35.13Z"/>
    <path class="cls-7" d="m67.77,261.33c-3.19,0-6.3-.43-9.25-1.29-2.99-.87-5.45-2.03-7.3-3.45l-.97-.74,4.28-9.5,1.53,1.12c1.46,1.07,3.27,1.96,5.36,2.65,2.09.69,4.22,1.04,6.34,1.04,1.57,0,2.83-.16,3.74-.46.79-.27,1.38-.61,1.7-.99.27-.32.4-.67.4-1.1,0-.53-.18-.89-.59-1.2-.65-.48-1.55-.9-2.69-1.23-1.28-.37-2.7-.73-4.25-1.07-1.59-.35-3.22-.79-4.84-1.29-1.7-.53-3.29-1.24-4.72-2.12-1.54-.95-2.78-2.21-3.69-3.75-.92-1.56-1.39-3.5-1.39-5.78,0-2.47.67-4.77,1.99-6.81,1.32-2.05,3.34-3.69,5.98-4.88,2.57-1.16,5.81-1.74,9.61-1.74,2.52,0,5.04.31,7.5.92,2.49.62,4.71,1.53,6.59,2.7l1.11.69-3.96,9.48-1.52-.87c-1.59-.91-3.25-1.61-4.93-2.06s-3.31-.68-4.84-.68-2.8.16-3.68.48c-.76.28-1.31.62-1.61,1.03-.29.39-.43.79-.43,1.26,0,.54.18.91.6,1.24.63.49,1.51.89,2.62,1.18,1.26.33,2.71.68,4.3,1.02,1.65.36,3.3.8,4.9,1.32,1.67.55,3.23,1.25,4.63,2.08h0c1.52.91,2.77,2.15,3.71,3.68.97,1.57,1.46,3.5,1.46,5.75,0,2.44-.68,4.72-2.03,6.75-1.34,2.02-3.37,3.66-6.02,4.86-2.59,1.18-5.84,1.78-9.65,1.78Zm-13.68-6.5c1.42.89,3.2,1.64,5.29,2.25,2.67.77,5.49,1.17,8.39,1.17,3.37,0,6.18-.5,8.37-1.5,2.12-.97,3.72-2.23,4.73-3.76,1.02-1.54,1.52-3.19,1.52-5.04,0-1.67-.34-3.06-1-4.13-.69-1.12-1.57-1.99-2.67-2.65-1.2-.72-2.55-1.32-4-1.8-1.5-.49-3.05-.91-4.6-1.24-1.64-.35-3.13-.71-4.44-1.05-1.5-.4-2.75-.97-3.71-1.72-1.18-.91-1.8-2.18-1.8-3.68,0-1.14.35-2.18,1.04-3.11.67-.9,1.69-1.6,3.03-2.08,1.24-.45,2.78-.67,4.73-.67,1.8,0,3.7.27,5.64.79,1.4.38,2.78.9,4.12,1.55l1.61-3.85c-1.35-.7-2.88-1.26-4.56-1.68-2.22-.55-4.49-.83-6.75-.83-3.37,0-6.18.5-8.35,1.47-2.1.94-3.67,2.2-4.66,3.74-1.01,1.56-1.5,3.24-1.5,5.14,0,1.71.32,3.13.96,4.21.66,1.12,1.53,2,2.65,2.69,1.21.75,2.56,1.35,4.02,1.8,1.54.48,3.09.89,4.6,1.22,1.61.36,3.1.73,4.43,1.12,1.5.43,2.75,1.01,3.69,1.72,1.19.89,1.82,2.16,1.82,3.66,0,1.17-.38,2.21-1.13,3.1-.69.82-1.72,1.46-3.06,1.91-1.24.42-2.79.63-4.72.63-2.45,0-4.9-.4-7.31-1.2-1.71-.56-3.26-1.25-4.64-2.06l-1.74,3.85Z"/>
    <path class="cls-7" d="m108.23,260.68h-11.92v-31.01h-12.23v-10.29h36.38v10.29h-12.23v31.01Zm-8.84-3.08h5.76v-31.01h12.23v-4.12h-30.22v4.12h12.23v31.01Z"/>
    <path class="cls-7" d="m154.8,260.68h-32.67v-41.29h31.96v10.18h-20.09v5.16h17.74v10.01h-17.74v5.76h20.8v10.18Zm-29.59-3.08h26.51v-4.02h-20.8v-11.92h17.74v-3.85h-17.74v-11.32h20.09v-4.02h-25.8v35.13Z"/>
    <path class="cls-7" d="m196.88,260.68h-9.58l-16.73-20.41v20.41h-11.81v-41.29h9.58l16.73,20.41v-20.41h11.82v41.29Zm-8.13-3.08h5.05v-35.13h-5.65v25.95l-21.27-25.95h-5.05v35.13h5.65v-25.95l21.27,25.95Z"/>
    <path class="cls-7" d="m214.84,260.68h-11.98v-41.29h11.98v41.29Zm-8.9-3.08h5.82v-35.13h-5.82v35.13Z"/>
    <path class="cls-7" d="m258.9,260.68h-9.58l-16.73-20.41v20.41h-11.82v-41.29h9.59l16.73,20.41v-20.41h11.81v41.29Zm-8.13-3.08h5.05v-35.13h-5.65v25.95l-21.27-25.95h-5.05v35.13h5.65v-25.95l21.27,25.95Z"/>
    <path class="cls-7" d="m284.87,261.33c-3.19,0-6.19-.52-8.9-1.55-2.73-1.03-5.13-2.53-7.13-4.45-2-1.92-3.57-4.2-4.69-6.78-1.12-2.58-1.68-5.45-1.68-8.53s.57-5.94,1.68-8.53c1.12-2.59,2.72-4.87,4.75-6.79,2.03-1.91,4.44-3.41,7.17-4.44,2.71-1.03,5.72-1.55,8.95-1.55,3.57,0,6.85.61,9.74,1.81,2.92,1.22,5.42,3.01,7.42,5.33l.97,1.12-7.82,7.29-1.05-1.11c-1.27-1.33-2.64-2.33-4.08-2.95-1.44-.62-3.05-.94-4.79-.94-1.62,0-3.12.27-4.46.79-1.33.52-2.48,1.26-3.44,2.2-.95.94-1.7,2.06-2.22,3.35-.52,1.3-.79,2.78-.79,4.39s.27,2.99.79,4.32c.52,1.3,1.26,2.44,2.21,3.37.96.95,2.12,1.7,3.43,2.24,2.59,1.07,5.99,1.09,9,.03.23-.08.48-.18.75-.3v-11.8h11.16v17.81l-.61.46c-2.25,1.7-4.85,3.01-7.75,3.88-2.86.86-5.76,1.29-8.63,1.29Zm.16-39.52c-2.86,0-5.5.45-7.86,1.35-2.35.89-4.41,2.17-6.15,3.8-1.73,1.63-3.09,3.57-4.04,5.77-.95,2.2-1.43,4.65-1.43,7.3s.48,5.11,1.43,7.3c.95,2.2,2.29,4.15,3.99,5.78,1.7,1.63,3.75,2.91,6.08,3.79,4.51,1.71,10.16,1.8,15.55.18,2.28-.68,4.35-1.67,6.16-2.94v-13.18h-5v10.6l-.82.43c-.75.39-1.38.68-1.98.89-3.72,1.31-7.9,1.27-11.19-.08-1.69-.69-3.18-1.66-4.43-2.89-1.26-1.24-2.24-2.73-2.92-4.43-.67-1.69-1.01-3.52-1.01-5.45s.34-3.87,1.01-5.54c.68-1.68,1.66-3.16,2.91-4.4,1.25-1.23,2.76-2.2,4.47-2.88,1.7-.67,3.58-1.01,5.59-1.01,2.17,0,4.19.4,6.02,1.19,1.4.61,2.74,1.48,3.99,2.59l3.42-3.19c-1.49-1.44-3.26-2.59-5.26-3.42-2.51-1.04-5.39-1.57-8.55-1.57Z"/>
  </g>
  <g>
    <path class="cls-7" d="m32.26,145.44H1.23v-41.29h11.98v31.01h19.05v10.29Zm-27.95-3.08h24.87v-4.12H10.13v-31.01h-5.82v35.13Z"/>
    <path class="cls-7" d="m46.23,145.44h-11.98v-41.29h11.98v41.29Zm-8.9-3.08h5.82v-35.13h-5.82v35.13Z"/>
    <path class="cls-7" d="m66.31,146.1c-3.19,0-6.3-.43-9.25-1.29-2.99-.87-5.45-2.03-7.3-3.45l-.97-.74,4.28-9.5,1.53,1.11c1.46,1.07,3.27,1.96,5.36,2.65,2.09.69,4.22,1.04,6.34,1.04,1.57,0,2.83-.16,3.73-.46.79-.27,1.38-.61,1.7-.98.27-.32.4-.67.4-1.11,0-.53-.17-.89-.58-1.2-.65-.48-1.55-.9-2.69-1.23-1.28-.37-2.71-.73-4.25-1.07-1.59-.35-3.22-.78-4.84-1.29-1.7-.53-3.29-1.24-4.72-2.12-1.54-.95-2.78-2.21-3.69-3.75-.92-1.56-1.39-3.5-1.39-5.78,0-2.48.67-4.77,1.99-6.81,1.32-2.05,3.33-3.69,5.98-4.88,2.57-1.16,5.81-1.75,9.61-1.75,2.52,0,5.04.31,7.49.92,2.49.62,4.71,1.53,6.59,2.7l1.11.69-3.96,9.48-1.51-.87c-1.59-.91-3.25-1.61-4.93-2.06-1.68-.45-3.31-.68-4.84-.68s-2.8.16-3.68.48c-.76.28-1.31.62-1.61,1.03-.29.39-.43.79-.43,1.26,0,.54.18.91.6,1.24.63.49,1.51.89,2.62,1.18,1.27.33,2.71.68,4.3,1.02,1.65.36,3.3.8,4.9,1.32,1.67.55,3.23,1.25,4.63,2.08h0c1.52.91,2.77,2.15,3.71,3.68.97,1.57,1.46,3.5,1.46,5.75,0,2.44-.68,4.72-2.03,6.75-1.34,2.02-3.37,3.66-6.02,4.86-2.59,1.18-5.84,1.78-9.64,1.78Zm-13.68-6.5c1.42.89,3.2,1.64,5.29,2.25,2.67.77,5.49,1.17,8.39,1.17,3.36,0,6.18-.5,8.37-1.5,2.12-.97,3.72-2.23,4.73-3.76,1.02-1.54,1.52-3.19,1.52-5.04,0-1.67-.34-3.06-1-4.13-.69-1.12-1.57-1.99-2.67-2.65h0c-1.2-.72-2.55-1.32-4-1.8-1.5-.49-3.05-.91-4.6-1.24-1.63-.35-3.13-.71-4.44-1.05-1.5-.4-2.75-.97-3.71-1.72-1.18-.91-1.8-2.18-1.8-3.68,0-1.14.35-2.18,1.04-3.11.67-.9,1.69-1.6,3.03-2.08,1.24-.45,2.78-.67,4.73-.67,1.8,0,3.7.27,5.64.79,1.4.38,2.78.9,4.12,1.55l1.61-3.85c-1.35-.7-2.88-1.26-4.56-1.68-2.21-.55-4.49-.83-6.75-.83-3.37,0-6.18.5-8.35,1.47-2.1.94-3.67,2.2-4.66,3.74-1.01,1.56-1.5,3.24-1.5,5.14,0,1.72.32,3.13.96,4.21.66,1.12,1.53,2,2.65,2.69,1.21.75,2.56,1.35,4.02,1.8,1.54.48,3.09.89,4.6,1.22,1.6.36,3.09.73,4.43,1.12,1.5.43,2.74,1.01,3.69,1.72,1.19.89,1.82,2.16,1.82,3.66,0,1.17-.38,2.21-1.13,3.1-.69.81-1.72,1.46-3.06,1.91-1.24.42-2.79.63-4.72.63-2.45,0-4.91-.4-7.31-1.2-1.71-.56-3.26-1.25-4.64-2.06l-1.74,3.85Z"/>
    <path class="cls-7" d="m106.77,145.44h-11.92v-31.01h-12.23v-10.29h36.38v10.29h-12.23v31.01Zm-8.84-3.08h5.76v-31.01h12.23v-4.12h-30.22v4.12h12.23v31.01Z"/>
    <path class="cls-7" d="m153.33,145.44h-32.67v-41.29h31.96v10.18h-20.09v5.16h17.74v10.01h-17.74v5.76h20.8v10.18Zm-29.59-3.08h26.51v-4.02h-20.8v-11.92h17.74v-3.85h-17.74v-11.32h20.09v-4.02h-25.8v35.13Z"/>
    <path class="cls-7" d="m195.42,145.44h-9.58l-16.73-20.41v20.41h-11.82v-41.29h9.59l16.73,20.41v-20.41h11.81v41.29Zm-8.13-3.08h5.05v-35.13h-5.65v25.95l-21.27-25.95h-5.05v35.13h5.65v-25.95l21.27,25.95Z"/>
    <path class="cls-7" d="m213.38,145.44h-11.98v-41.29h11.98v41.29Zm-8.9-3.08h5.82v-35.13h-5.82v35.13Z"/>
    <path class="cls-7" d="m257.43,145.44h-9.58l-16.73-20.41v20.41h-11.81v-41.29h9.58l16.73,20.41v-20.41h11.82v41.29Zm-8.13-3.08h5.05v-35.13h-5.65v25.95l-21.27-25.95h-5.05v35.13h5.65v-25.95l21.27,25.95Z"/>
    <path class="cls-7" d="m283.41,146.1c-3.19,0-6.19-.52-8.9-1.55-2.73-1.03-5.13-2.53-7.13-4.45-2-1.92-3.57-4.2-4.69-6.78-1.12-2.58-1.68-5.45-1.68-8.53s.57-5.94,1.68-8.53c1.12-2.58,2.71-4.87,4.75-6.79,2.03-1.91,4.44-3.41,7.17-4.44,2.71-1.03,5.72-1.55,8.95-1.55,3.57,0,6.85.61,9.74,1.81,2.92,1.22,5.42,3.01,7.42,5.33l.97,1.12-7.82,7.29-1.05-1.1c-1.27-1.34-2.64-2.33-4.08-2.95-1.44-.62-3.05-.94-4.79-.94-1.62,0-3.12.27-4.46.79-1.33.52-2.48,1.26-3.44,2.2-.95.94-1.7,2.06-2.22,3.35-.52,1.3-.79,2.78-.79,4.39s.27,3,.79,4.32c.52,1.3,1.26,2.44,2.22,3.37.96.95,2.12,1.7,3.43,2.24,2.59,1.07,5.99,1.09,9,.03.24-.08.48-.18.75-.3v-11.8h11.16v17.81l-.61.46c-2.25,1.7-4.85,3.01-7.75,3.88-2.86.86-5.76,1.29-8.63,1.29Zm.16-39.52c-2.86,0-5.5.45-7.86,1.35-2.35.89-4.41,2.17-6.15,3.8-1.73,1.63-3.09,3.57-4.04,5.77-.95,2.2-1.43,4.65-1.43,7.3s.48,5.11,1.43,7.3c.95,2.2,2.29,4.15,3.99,5.78,1.7,1.63,3.74,2.91,6.08,3.79,4.51,1.71,10.16,1.8,15.55.18,2.28-.68,4.35-1.67,6.16-2.94v-13.18h-5v10.6l-.82.43c-.75.39-1.38.67-1.98.89-3.72,1.31-7.91,1.27-11.19-.08-1.69-.69-3.18-1.66-4.43-2.89-1.26-1.24-2.24-2.73-2.92-4.43-.67-1.68-1.01-3.52-1.01-5.46s.34-3.87,1.01-5.54c.68-1.69,1.66-3.17,2.92-4.4,1.25-1.23,2.76-2.2,4.47-2.87,1.7-.67,3.58-1.01,5.59-1.01,2.17,0,4.19.4,6.02,1.19,1.4.61,2.74,1.48,3.99,2.59l3.42-3.19c-1.49-1.44-3.26-2.59-5.26-3.42-2.51-1.04-5.39-1.57-8.55-1.57Z"/>
  </g>
  <path class="cls-1" d="m322.14,247.89s-6.04,66.82-54,31.84c-47.96-34.98-66.07-56.33-66.07-56.33,0,0-10.15-3.37-21.39-18.59,0,0-8.87-12.06-7.62-17.06,1.25-5,18.61,16.13,18.61,16.13,0,0-18.5-24.35-15.62-26.4s20.61,19.19,20.61,19.19c0,0-17.4-22.38-16.74-24.66.66-2.28,12.86,5.39,22.2,20.06,0,0-16.44-20.04-15.22-24.22s20.62,21.25,20.62,21.25c0,0,.86-19.95,5.64-19.39,4.78.57,3.18,17.42,3.18,17.42l1.1,8.98s4.68,10.84,22.44,26.32c17.76,15.48,38.27,23.08,38.27,23.08l.28-6.18,43.73,8.56Z"/>
  <path class="cls-1" d="m314.65,29.95s-29.89,72.19,9.26,77.03c27.05,3.34,43.99-22.31,43.99-22.31,0,0,13.26,7.37,17.89-8.21,4.63-15.57-10.1-16.68-15.36-7.71,0,0,9.05-41.33-22.31-45.12-31.36-3.79-33.46,6.31-33.46,6.31Z"/>
  <path class="cls-1" d="m330.44,102.92s12.27,32.86-12.27,40.38c0,0,5.15,31.67,32.46,22.96s34.44-22.43,34.44-22.43c0,0-15.44-8.45-16.63-14.38-1.19-5.94-4.75-42.36-4.75-42.36l-33.26,15.84Z"/>
  <path class="cls-6" d="m399.59,172.75c-23.36,54.24-.79,85.12-.79,85.12h58.2c-7.52-2.77-16.23-75.62-24.55-92.24-8.31-16.63-47.9-24.15-47.9-24.15,0,0-19.82,21.33-37.8,20.91-17.98-.42-26.33-20.91-26.33-20.91,0,0-35.38.73-33.6,15.05,1.78,14.32-17.74,83.97-17.74,83.97l40.37,7.13-.67-72.22-4.48,128.33h102.42s-3.57-67.16-3.57-67.16"/>
  <path class="cls-4" d="m369.71,71.48s.04-.52.07-1.43c.15-4.4.18-18.01-4.61-27.71q-5.79-11.71-5.79-11.71c.8-.05-14.01,14.48-48.76,11.13C274.92,38.31,294-.43,296.03,0c0,0,3.19,2.41,37.18,2.41s32.48,17.72,45.56,17.79c11.64.06,17.87,6.12,14.65,41.27-2.8,30.61-7.08,30.64-28.24,40.28l-1.23-12.11,3.96-4.97s9.04,4.79,12.82-6.96c3.76-11.67-5.56-12.58-7.81-11.72-1.96.75-3.2,5.49-3.2,5.49Z"/>
  <polyline class="cls-5" points="305.97 58.77 310.61 40.55 311.84 35.63"/>
  <path class="cls-3" d="m331.72,107.17s19.36-6.16,32.22-17.52c0,0-13.76,19.22-30.78,25.12l-1.44-7.6Z"/>
  <path class="cls-3" d="m386.41,196.3s11.81,60.21,17.32,69.17l-7.25.47s-6.64-24.99-10.07-69.64Z"/>
  <path class="cls-3" d="m310.21,182.41s-5.21,61.14-3.73,65.7l-7.1-1.54s1.84-20.28,10.83-64.16Z"/>
  <path class="cls-1" d="m445.47,257.86s7.03,66.72-46.8,41.71c-53.83-25.01-75.75-42.45-75.75-42.45,0,0-10.61-1.33-24.59-14.09,0,0-11.05-10.11-10.78-15.26s21.38,12.22,21.38,12.22c0,0-22.87-20.3-20.45-22.87,2.42-2.57,23.94,14.83,23.94,14.83,0,0-21.41-18.58-21.2-20.95s13.66,2.79,25.67,15.38c0,0-20.01-16.47-19.63-20.81s24.35,16.85,24.35,16.85c0,0-3.03-19.74,1.77-20.11,4.8-.37,6.5,16.47,6.5,16.47l2.82,8.59s6.69,9.73,27.12,21.47c20.43,11.74,42.02,15.22,42.02,15.22l-.93-6.12,44.56-.09Z"/>
  <path class="cls-2" d="m320.41,141.47l3.55-1.67s9.89,19.87,24.61,17.04c14.71-2.83,32.08-15.66,32.08-15.66l3.9.29s-20.32,23.82-40.33,20.72c-20.01-3.1-23.81-20.72-23.81-20.72Z"/>
  <path class="cls-8" d="m346.33,3.5c13.5-.6,26.85,27.12,17.62,51.7l9.73,5.5s5.28-35.94,2.75-42.28c0,0-9.02-15.67-30.09-14.91Z"/>
  <ellipse class="cls-8" cx="369.69" cy="71.54" rx="15.38" ry="18.1"/>
</svg>