<svg xmlns="http://www.w3.org/2000/svg" viewBox="0 0 24.99 29.64"><defs><style>.cls-1{fill:none;stroke:#ff6e0b;stroke-miterlimit:10;stroke-width:2px;}.cls-2{fill:#ff6e0b;}.cls-3{fill:#fff;}</style></defs><g id="Capa_2" data-name="Capa 2"><g id="Capa_1-2" data-name="Capa 1"><rect class="cls-1" x="1" y="1" width="22.99" height="27.64" rx="3.66"/><path class="cls-2" d="M5.9,5.07H19.09a.67.67,0,0,1,.68.68h0a.67.67,0,0,1-.68.68H5.9a.67.67,0,0,1-.68-.68h0A.67.67,0,0,1,5.9,5.07Z"/><path class="cls-2" d="M5.9,8.2H19.09a.67.67,0,0,1,.68.68h0a.67.67,0,0,1-.68.68H5.9a.67.67,0,0,1-.68-.68h0A.67.67,0,0,1,5.9,8.2Z"/><path class="cls-2" d="M5.9,11.32H19.09a.67.67,0,0,1,.68.68h0a.67.67,0,0,1-.68.68H5.9A.67.67,0,0,1,5.22,12h0A.67.67,0,0,1,5.9,11.32Z"/><path class="cls-2" d="M5.9,14.45H19.09a.67.67,0,0,1,.68.68h0a.67.67,0,0,1-.68.68H5.9a.67.67,0,0,1-.68-.68h0A.67.67,0,0,1,5.9,14.45Z"/><path class="cls-2" d="M5.9,17.57H19.09a.67.67,0,0,1,.68.68h0a.67.67,0,0,1-.68.68H5.9a.67.67,0,0,1-.68-.68h0A.67.67,0,0,1,5.9,17.57Z"/><path class="cls-2" d="M5.9,20.7H19.09a.67.67,0,0,1,.68.68h0a.67.67,0,0,1-.68.68H5.9a.67.67,0,0,1-.68-.68h0A.67.67,0,0,1,5.9,20.7Z"/><path class="cls-2" d="M5.9,24.05H19.09a.67.67,0,0,1,.68.68h0a.67.67,0,0,1-.68.68H5.9a.67.67,0,0,1-.68-.68h0A.67.67,0,0,1,5.9,24.05Z"/><path class="cls-3" d="M11.13,21a2.49,2.49,0,0,1-1.77-.73L5.22,16.17a2.5,2.5,0,0,1,3.54-3.54L11.14,15l5.08-5.08a2.56,2.56,0,0,1,3.54,0,2.5,2.5,0,0,1,0,3.54L13.19,20l-.17.15-.11.12a2.49,2.49,0,0,1-1.77.73Z"/><path class="cls-2" d="M18.61,11.07a.88.88,0,0,0-1.24,0L11.14,17.3,7.61,13.77A.88.88,0,0,0,6.37,15l4.14,4.14a.88.88,0,0,0,1.24,0,.65.65,0,0,0,.1-.15,1.13,1.13,0,0,0,.18-.12l6.57-6.57a.88.88,0,0,0,0-1.24Z"/></g></g></svg>