<svg xmlns="http://www.w3.org/2000/svg" viewBox="0 0 23.56 34.63"><defs><style>.cls-1{fill:#39bdf7;}.cls-2{fill:#fff;}</style></defs><g id="Capa_2" data-name="Capa 2"><g id="Capa_1-2" data-name="Capa 1"><path class="cls-1" d="M12.07,24.87l5.24,5.2V19.46H6.83V30.07l5.23-5.2Z"/><path class="cls-1" d="M5,34.63V17.92H19.11V34.63l-7-7Zm7-8.39,6,6V18.92H6V32.23Z"/><path class="cls-2" d="M11.78,23.56A11.78,11.78,0,1,1,23.56,11.78,11.79,11.79,0,0,1,11.78,23.56Z"/><path class="cls-1" d="M11.78,3.38a8.44,8.44,0,1,0,8.44,8.44A8.45,8.45,0,0,0,11.78,3.38Zm5.65,7.25-3,2.17a.16.16,0,0,0-.07.21c.44,1.33.87,2.65,1.3,4,0,0,0,.08,0,.15l-.57-.41-3-2.16a.13.13,0,0,0-.19,0L8.57,17.06l-.11.08.48-1.46c.29-.89.58-1.79.88-2.68a.14.14,0,0,0-.07-.19L6.32,10.32l-.09-.07h4.34c.11,0,.15,0,.18-.14.43-1.35.87-2.7,1.3-4a.29.29,0,0,1,0-.09c0,.07,0,.12.06.17.43,1.32.85,2.64,1.28,4a.16.16,0,0,0,.19.14h4.16a.47.47,0,0,1,.16,0l-.49.36Z"/><path class="cls-1" d="M11.78,1.09A10.73,10.73,0,1,0,22.51,11.82,10.74,10.74,0,0,0,11.78,1.09Zm0,20.31a9.58,9.58,0,1,1,9.58-9.58A9.58,9.58,0,0,1,11.78,21.4Z"/></g></g></svg>