<svg xmlns="http://www.w3.org/2000/svg" viewBox="0 0 25.55 24.66"><defs><style>.cls-1{fill:#fcd65e;}.cls-2{fill:#fff;}</style></defs><g id="Capa_2" data-name="Capa 2"><g id="Capa_1-2" data-name="Capa 1"><path class="cls-1" d="M23.65,6.28h-5A3.33,3.33,0,0,0,20.54,3.4,3.71,3.71,0,0,0,16.59,0a3.91,3.91,0,0,0-3.8,2.47A3.9,3.9,0,0,0,9,0,3.71,3.71,0,0,0,5,3.4,3.32,3.32,0,0,0,6.91,6.28h-5A1.92,1.92,0,0,0,0,8.19v4.16a1.91,1.91,0,0,0,1.09,1.72,1.91,1.91,0,0,0-.16.76v7.92a1.92,1.92,0,0,0,1.91,1.91H22.71a1.92,1.92,0,0,0,1.91-1.91V14.83a1.91,1.91,0,0,0-.16-.76,1.91,1.91,0,0,0,1.09-1.72V8.19a1.92,1.92,0,0,0-1.91-1.91ZM13.6,3.4a2.76,2.76,0,0,1,3-2.44,2.76,2.76,0,0,1,3,2.44,2.76,2.76,0,0,1-3,2.44h-3ZM6,3.4A2.76,2.76,0,0,1,9,1,2.76,2.76,0,0,1,12,3.4V5.84H9A2.76,2.76,0,0,1,6,3.4ZM2.85,23.31a.57.57,0,0,1-.57-.57V14.82a.57.57,0,0,1,.57-.57H6.46a2,2,0,0,0,.67,1.53l.69.67.78.76-.12.68c-.07.42-.14.85-.22,1.27a1.94,1.94,0,0,0,.66,2v1.58a1.8,1.8,0,0,0,.1.57H2.85ZM8.91,8.19v4.1l-.66.09a2.15,2.15,0,0,0-1.18.53H1.92a.57.57,0,0,1-.57-.57V8.18a.57.57,0,0,1,.57-.57H9a1.8,1.8,0,0,0-.1.57Zm6.63,14.55a.57.57,0,0,1-.57.57H10.81a.57.57,0,0,1-.57-.57V21.59a2.37,2.37,0,0,0,.92-.28l.84-.44.93-.49,1.41.74.37.19.38.17.3.12h.14v1.14Zm0-10.82-.32-.66-.48-1a1.95,1.95,0,0,0-3.59,0l-.45.92-.45.91V8.19a.57.57,0,0,1,.57-.57H15a.57.57,0,0,1,.57.57v3.73Zm7.74,10.82a.57.57,0,0,1-.57.57H16.78a1.8,1.8,0,0,0,.1-.57V21.22a2,2,0,0,0,.34-.31,1.91,1.91,0,0,0,.42-1.62c-.12-.69-.23-1.37-.36-2.08l.79-.77.05-.05.59-.58a2,2,0,0,0,.7-1.56H22.7a.57.57,0,0,1,.57.57v7.92Zm.93-10.39a.57.57,0,0,1-.57.57H18.8a2.14,2.14,0,0,0-1.2-.53l-.73-.1V8.2a1.8,1.8,0,0,0-.1-.57h6.86a.57.57,0,0,1,.57.57v4.16Z"/><path class="cls-2" d="M14.62,15.57a1.39,1.39,0,0,0-.44,1.4c.05.22.09.45.13.69l-.69-.37A1.42,1.42,0,0,0,13,17.1a1.43,1.43,0,0,0-.67.18l-.69.37c0-.24.08-.48.13-.72a1.37,1.37,0,0,0-.42-1.35l-.51-.52.67-.09a1.36,1.36,0,0,0,1.18-.85c.1-.22.2-.43.31-.65l0,.07c.1.2.2.4.28.59a1.31,1.31,0,0,0,1.14.84l.71.1c-.16.17-.32.33-.49.49Z"/><path class="cls-2" d="M18.53,14a1.15,1.15,0,0,0-1-.78L16.25,13l-1.18-.17-.6-1.23-.49-1a1.13,1.13,0,0,0-1-.73,1.12,1.12,0,0,0-1,.72l-.45.92-.64,1.31L9.5,13l-1.13.16a1.14,1.14,0,0,0-1,.76,1.11,1.11,0,0,0,.35,1.22l.69.67,1.09,1.06c-.07.37-.13.74-.19,1.12s-.15.86-.22,1.28a1.17,1.17,0,0,0,.4,1.23,1.14,1.14,0,0,0,1.3,0l.85-.45c.44-.23.88-.46,1.31-.7h0c.59.33,1.2.65,1.79.95l.37.19c.11.06.23.1.31.14l.15.06h.11a1.12,1.12,0,0,0,1.15-1.34c-.14-.83-.28-1.65-.44-2.51l1.11-1.07.64-.63A1.16,1.16,0,0,0,18.53,14Zm-.78.83c-.59.57-1.17,1.15-1.77,1.72a.48.48,0,0,0-.15.48c.15.84.3,1.68.44,2.51a.56.56,0,0,1-.6.68c-.06,0-.2-.07-.32-.13-.72-.37-1.44-.74-2.15-1.14a.52.52,0,0,0-.55,0c-.71.39-1.43.76-2.15,1.14a.59.59,0,0,1-.7,0,.62.62,0,0,1-.19-.68c.15-.81.28-1.62.42-2.43a.45.45,0,0,0-.16-.47c-.6-.57-1.19-1.16-1.79-1.74a.57.57,0,0,1-.21-.64.59.59,0,0,1,.56-.38l2.47-.35a.48.48,0,0,0,.4-.3c.36-.75.73-1.49,1.1-2.24a.58.58,0,0,1,.54-.4c.28,0,.42.18.54.41.37.76.75,1.51,1.11,2.26a.43.43,0,0,0,.36.26l2.47.35c.27,0,.49.12.58.4s-.06.47-.25.66Z"/></g></g></svg>