<svg xmlns="http://www.w3.org/2000/svg" viewBox="0 0 20.82 53.36"><defs><style>.cls-1{fill:#fff;}</style></defs><g id="Capa_2" data-name="Capa 2"><g id="Capa_1-2" data-name="Capa 1"><path class="cls-1" d="M8.59,28.73l-.8.43c-.76.41-1.41.3-1.77-.3s-.14-1.28.65-1.74q2.74-1.56,5.5-3.11c.81-.45,1.47-.34,1.84.28s.14,1.25-.66,1.72-1.48.85-2.26,1.29c.2.3.33.56.5.78,1.34,1.69,2.65,3.41,4.05,5.05a24.23,24.23,0,0,1,4.23,6.42c1.29,3.13,1.41,6.23-.5,9.18-2.88,4.46-9.2,6-14.23,3.37a9.19,9.19,0,0,1-5-9.85,13.31,13.31,0,0,1,2.43-5.69c1.2-1.66,2.55-3.21,3.84-4.81l2.31-2.88-.12-.13ZM3.92,38.82A9.8,9.8,0,0,0,2.58,42,6.74,6.74,0,0,0,6.12,50a9,9,0,0,0,8.47.06,6.86,6.86,0,0,0,3.56-8.42,17.07,17.07,0,0,0-3.44-6c-1.41-1.7-2.85-3.37-4.41-5.2C8.15,33.24,6,36,3.92,38.82Z"/><path class="cls-1" d="M8.65,18.21c1.63-.27,1.94-1.22,1.91-2.68-.1-4.63,0-9.26,0-13.9,0-1-.34-1.62-.94-1.63s-1,.57-1,1.61V17.54c0,.23,0,.45,0,.66Z"/><path class="cls-1" d="M5.88,24.61c0,1.13.84,1.73,1.63,1.31,2.08-1.12,4.13-2.29,6.17-3.49A1,1,0,0,0,14,20.92a1.13,1.13,0,0,0-1.62-.4c-1.53.84-3,1.71-4.55,2.56a12.81,12.81,0,0,0-1.35.78,3.81,3.81,0,0,0-.62.74Z"/><path class="cls-1" d="M5.88,21.27c0,1.07.82,1.68,1.56,1.29,2.11-1.13,4.19-2.31,6.25-3.52A1,1,0,0,0,14,17.53a1,1,0,0,0-1.48-.44c-2,1.13-4.09,2.27-6.11,3.45-.29.17-.44.58-.54.73Z"/></g></g></svg>