<svg xmlns="http://www.w3.org/2000/svg" viewBox="0 0 32.03 32.74"><defs><style>.cls-1{fill:#fff;}.cls-2{fill:#ffc700;}</style></defs><g id="Capa_2" data-name="Capa 2"><g id="Capa_1-2" data-name="Capa 1"><path class="cls-1" d="M16.4,24.52A12.26,12.26,0,1,1,28.66,12.26,12.27,12.27,0,0,1,16.4,24.52Z"/><path class="cls-2" d="M16.4,1.13A11.16,11.16,0,1,0,27.56,12.29,11.17,11.17,0,0,0,16.4,1.13Zm0,21.14a10,10,0,1,1,10-10A10,10,0,0,1,16.4,22.27Z"/><path class="cls-2" d="M26.38,19.38a12.27,12.27,0,0,1-8.75,5.09l6.55,8.27,1-6.8,6.85.59-5.65-7.14Z"/><path class="cls-2" d="M6.07,18.84,0,26.51l6.85-.59,1,6.8,6.62-8.36A12.27,12.27,0,0,1,6.07,18.84Z"/><path class="cls-2" d="M16.4,3.52a8.78,8.78,0,1,0,8.78,8.78A8.79,8.79,0,0,0,16.4,3.52Zm2.93,12.82H14.47V14.91H16V9.73a5.65,5.65,0,0,1-1.48,1.1V9.11A5.65,5.65,0,0,0,16.4,7.49h1.47v7.42h1.45v1.43Z"/></g></g></svg>