<svg xmlns="http://www.w3.org/2000/svg" viewBox="0 0 29.45 23.53"><defs><style>.cls-1{fill:#46f964;}</style></defs><g id="Capa_2" data-name="Capa 2"><g id="Capa_1-2" data-name="Capa 1"><path class="cls-1" d="M27,0H2.43A2.43,2.43,0,0,0,0,2.43V21.1a2.43,2.43,0,0,0,2.43,2.43H27a2.43,2.43,0,0,0,2.43-2.43V2.43A2.43,2.43,0,0,0,27,0Zm.81,2.43v4.2H23.48l-2.05-5H27A.81.81,0,0,1,27.83,2.43ZM10.26,6.63l-2-5H13l2.05,5Zm6.54,0-2.05-5h4.92l2,5Zm-14.38-5h4l2.05,5H1.61V2.43A.81.81,0,0,1,2.42,1.62ZM27,21.91H2.42a.81.81,0,0,1-.81-.81V8.25H27.82V21.1A.81.81,0,0,1,27,21.91Z"/><path class="cls-1" d="M18.69,13.17,14,10.43a1.93,1.93,0,0,0-2.89,1.67v5.53A1.86,1.86,0,0,0,12,19.25a1.83,1.83,0,0,0,.93.25,1.89,1.89,0,0,0,.94-.25l4.83-2.79a1.89,1.89,0,0,0,.95-1.64,1.87,1.87,0,0,0-.95-1.64Zm-.81,1.88-4.83,2.79a.24.24,0,0,1-.25,0,.23.23,0,0,1-.12-.21V12.1a.3.3,0,0,1,.3-.3.28.28,0,0,1,.15,0l4.74,2.74a.28.28,0,0,1,0,.48Z"/></g></g></svg>