<svg xmlns="http://www.w3.org/2000/svg" viewBox="0 0 30.31 29.55"><defs><style>.cls-1{fill:#64b8e7;}</style></defs><g id="Capa_2" data-name="Capa 2"><g id="Capa_1-2" data-name="Capa 1"><rect class="cls-1" x="2.53" y="2.92" width="12.4" height="0.4"/><rect class="cls-1" x="2.53" y="4.38" width="12.4" height="0.4"/><rect class="cls-1" x="2.53" y="5.8" width="12.4" height="0.4"/><rect class="cls-1" x="2.53" y="7.26" width="12.4" height="0.4"/><rect class="cls-1" x="2.53" y="8.73" width="12.4" height="0.4"/><path class="cls-1" d="M0,0H17.22V11.85H0ZM1.63,1.1a.53.53,0,0,0-.53.53v8.59a.53.53,0,0,0,.53.53h14a.53.53,0,0,0,.53-.53V1.63a.53.53,0,0,0-.53-.53Z"/><path class="cls-1" d="M24.06,7a3,3,0,1,1,3,3A3,3,0,0,1,24.06,7Zm.7,0a2.3,2.3,0,1,0,2.3-2.3A2.3,2.3,0,0,0,24.76,7Z"/><rect class="cls-1" x="15.85" y="6.07" width="1.76" height="7.92" transform="translate(-0.78 18.62) rotate(-57.06)"/><rect class="cls-1" x="16.5" y="6.73" width="0.44" height="6.59" transform="translate(-0.79 18.61) rotate(-57.05)"/><path class="cls-1" d="M19,11.85a1.25,1.25,0,0,0,1.25,1.25h3.65v7h6.37V11.45a.86.86,0,0,0-.86-.86H27.92l-.85.88-.76-.88h-6a1.26,1.26,0,0,0-.88.37,1.24,1.24,0,0,0-.37.89Zm.49,0a.75.75,0,0,1,.76-.76H24a.87.87,0,0,0-.09.36v1.16H20.28a.76.76,0,0,1-.76-.76Z"/><path class="cls-1" d="M4.67,29.55A2.43,2.43,0,1,1,7.1,27.12a2.43,2.43,0,0,1-2.43,2.43"/><path class="cls-1" d="M11.46,29.55a2.43,2.43,0,1,1,2.43-2.43,2.43,2.43,0,0,1-2.43,2.43"/><path class="cls-1" d="M18.3,29.55a2.43,2.43,0,1,1,2.43-2.43,2.43,2.43,0,0,1-2.43,2.43"/><path class="cls-1" d="M25.1,29.55a2.43,2.43,0,1,1,2.43-2.43,2.43,2.43,0,0,1-2.43,2.43"/></g></g></svg>