<svg xmlns="http://www.w3.org/2000/svg" viewBox="0 0 30.92 18.78"><defs><style>.cls-1{fill:#f48a42;}</style></defs><g id="Capa_2" data-name="Capa 2"><g id="Capa_1-2" data-name="Capa 1"><polygon class="cls-1" points="18.48 8.51 18.48 8.5 18.48 8.51 18.48 8.51"/><path class="cls-1" d="M23.88,14a9.71,9.71,0,0,0,5.75-1.87.53.53,0,0,0,.24-.73c-.27-.57-.49-1.16-.81-1.71s-.83-.79-1.56-.47a8.82,8.82,0,0,1-6.58.26c-.27-.09-.53-.22-.8-.33a1,1,0,0,0-1,.07,2.81,2.81,0,0,0-.62-.74h0a2,2,0,0,1,2.12-.18,9.1,9.1,0,0,0,1.41.5,7.72,7.72,0,0,0,5.16-.49,1.92,1.92,0,0,1,2.61.74,12.69,12.69,0,0,1,1,2.21,1.2,1.2,0,0,1-.52,1.58A10.44,10.44,0,0,1,24,15a10.57,10.57,0,0,1-6.48-2.11h0a4.16,4.16,0,0,0,1.18-.36,9.83,9.83,0,0,0,5.22,1.52Z"/><path class="cls-1" d="M19.87,4a4,4,0,1,1,4,4A4,4,0,0,1,19.87,4Zm1,0a3.05,3.05,0,1,0,3-3.05A3.07,3.07,0,0,0,20.83,4Z"/><path class="cls-1" d="M23.87,1A3.05,3.05,0,1,0,26.94,4,3.05,3.05,0,0,0,23.87,1Z"/><polygon class="cls-1" points="12.46 8.51 12.45 8.5 12.46 8.51 12.46 8.51"/><path class="cls-1" d="M7.05,14A9.71,9.71,0,0,1,1.3,12.16a.53.53,0,0,1-.24-.73c.27-.57.49-1.16.81-1.71s.83-.79,1.56-.47A8.82,8.82,0,0,0,10,9.51c.27-.09.53-.22.8-.33a1,1,0,0,1,1,.07,2.81,2.81,0,0,1,.62-.74h0a2,2,0,0,0-2.12-.18,9.1,9.1,0,0,1-1.41.5,7.72,7.72,0,0,1-5.16-.49,1.92,1.92,0,0,0-2.61.74,12.69,12.69,0,0,0-1,2.21,1.2,1.2,0,0,0,.52,1.58A10.44,10.44,0,0,0,7,15a10.57,10.57,0,0,0,6.48-2.11h0a4.16,4.16,0,0,1-1.18-.36,9.83,9.83,0,0,1-5.22,1.52Z"/><path class="cls-1" d="M7.06,8a4,4,0,1,1,4-4A4,4,0,0,1,7.06,8ZM7.06,1a3.05,3.05,0,1,0,3,3.05A3.05,3.05,0,0,0,7.06,1Z"/><path class="cls-1" d="M7.07,1A3.05,3.05,0,1,1,4,4,3.05,3.05,0,0,1,7.07,1Z"/><path class="cls-1" d="M15.46,18.78a12.07,12.07,0,0,1-7.34-2.43,1.39,1.39,0,0,1-.6-1.85A15.28,15.28,0,0,1,8.71,12a2.22,2.22,0,0,1,3-.84,9,9,0,0,0,6.87.3c.28-.1.56-.23.83-.35a2.18,2.18,0,0,1,2.76.77,19.39,19.39,0,0,1,1.3,2.72,1.38,1.38,0,0,1-.55,1.71,12,12,0,0,1-7.41,2.49Z"/><path class="cls-1" d="M15.44,10.82a4.61,4.61,0,1,1,4.62-4.54A4.6,4.6,0,0,1,15.44,10.82Z"/></g></g></svg>