<svg xmlns="http://www.w3.org/2000/svg" viewBox="0 0 47.19 33.49"><defs><style>.cls-1{fill:#fff;}</style></defs><g id="Capa_2" data-name="Capa 2"><g id="Capa_1-2" data-name="Capa 1"><path class="cls-1" d="M5.06,11.94a3.91,3.91,0,0,0-.86-.37c-.31-.1-.62-.18-.94-.25s-.61-.14-.86-.22a1.86,1.86,0,0,1-.63-.32.69.69,0,0,1-.24-.55.9.9,0,0,1,.16-.5,1.18,1.18,0,0,1,.52-.37,2.66,2.66,0,0,1,.92-.14,4.23,4.23,0,0,1,1,.14,4.38,4.38,0,0,1,1,.44l.43-1.07a4.22,4.22,0,0,0-1.14-.49,5.43,5.43,0,0,0-1.32-.17,4.07,4.07,0,0,0-1.68.3,2.16,2.16,0,0,0-1,.81,2,2,0,0,0-.32,1.11,1.74,1.74,0,0,0,.24,1,1.84,1.84,0,0,0,.63.61,4.48,4.48,0,0,0,.86.38c.31.1.63.18.94.25s.6.14.86.22a1.71,1.71,0,0,1,.63.33.69.69,0,0,1,.24.55.79.79,0,0,1-.17.49,1.11,1.11,0,0,1-.53.34,3,3,0,0,1-.94.13,4.16,4.16,0,0,1-1.35-.23,4.06,4.06,0,0,1-1.1-.58L0,14.82a3.87,3.87,0,0,0,1.27.64,5.38,5.38,0,0,0,1.66.25,4.07,4.07,0,0,0,1.68-.3,2.18,2.18,0,0,0,1-.8,2,2,0,0,0,.32-1.1,1.73,1.73,0,0,0-.24-1,1.81,1.81,0,0,0-.63-.6Z"/><path class="cls-1" d="M23.75,26.08l-3.34,7.41h1.41l.74-1.72h3.71L27,33.49h1.45L25.1,26.08H23.75ZM23,30.7l1.39-3.24L25.8,30.7Z"/><path class="cls-1" d="M28.25,15.07l-.23-.2a1.79,1.79,0,0,0,.9-.3,1.74,1.74,0,0,0,.65-.82,1.68,1.68,0,0,0-.09-1.57,3.36,3.36,0,0,0-1.65-1.28l-3.2-1.37-2.92,6.81,3.4,1.46a3.57,3.57,0,0,0,2.19.36,1.72,1.72,0,0,0,1.25-1.08,1.91,1.91,0,0,0,.16-1.1,1.79,1.79,0,0,0-.46-.92Zm-1-3.23a2,2,0,0,1,.91.67.85.85,0,0,1,0,.86.87.87,0,0,1-.66.55,2,2,0,0,1-1.11-.2L24.66,13l.81-1.88ZM26.63,17a2.23,2.23,0,0,1-1.18-.23L23.4,15.9l.84-2,2.05.88a2.21,2.21,0,0,1,1,.7.89.89,0,0,1,.06.91A.9.9,0,0,1,26.63,17Z"/><path class="cls-1" d="M15.22,2.36l2.5-.83,1.21,3.63c.29.86.07,1.42-.65,1.66a1.72,1.72,0,0,1-.84.06,2.27,2.27,0,0,1-.84-.39l-.45,1.13a2.41,2.41,0,0,0,1.18.45,3,3,0,0,0,1.32-.15,2.53,2.53,0,0,0,1.57-1.2,2.66,2.66,0,0,0,0-2.06L18.65,0l-3.8,1.26.37,1.11Z"/><rect class="cls-1" x="33.57" y="22.54" width="7.41" height="1.38" transform="translate(6.6 54.67) rotate(-77.64)"/><polygon class="cls-1" points="6.01 21.58 4.8 22.24 8.33 28.76 12.95 26.26 12.39 25.24 8.98 27.08 6.01 21.58"/><polygon class="cls-1" points="46.01 6.75 41.86 11.06 42.6 5.13 41.45 4.59 37.3 8.86 38.05 2.98 36.76 2.36 35.8 10.11 37.14 10.75 41.17 6.59 40.47 12.33 41.79 12.96 47.19 7.31 46.01 6.75"/></g></g></svg>