<?xml version="1.0" encoding="UTF-8"?>
<svg id="Capa_1" data-name="Capa 1" xmlns="http://www.w3.org/2000/svg" viewBox="0 0 98 98">
  <defs>
    <style>
      .cls-1 {
        fill: #fff;
      }

      .cls-1, .cls-2 {
        stroke-width: 0px;
      }

      .cls-2 {
        fill: #ff6e0b;
      }
    </style>
  </defs>
  <rect class="cls-2" width="98" height="98" rx="16.42" ry="16.42"/>
  <path class="cls-1" d="m74.45,23.13v37.24c-9.02.21-17.49,1.82-24.49,8.73-.09-1.16-.2-1.88-.2-2.6,0-10.5.03-21-.04-31.5-.01-1.64.42-2.75,1.74-3.78,6.72-5.22,14.29-7.87,22.99-8.1Z"/>
  <path class="cls-1" d="m23.6,23.12c8.95.27,16.78,3.03,23.51,8.71.57.48,1.05,1.45,1.05,2.19.06,11.38.03,22.75.02,34.13,0,.14-.13.29-.34.73-6.74-6.51-15.12-8.34-24.25-8.45V23.12Z"/>
  <path class="cls-1" d="m17.04,67.45c9.23-1.56,17.8-.35,26.18,2.82H14v-36.99h3.05v34.17Z"/>
  <path class="cls-1" d="m83.94,70.37h-29.19c-.04-.24-.09-.48-.13-.72,4.31-.87,8.59-2.08,12.95-2.52,4.3-.44,8.68-.1,13.24-.1v-33.74c1.1-.06,2-.11,3.14-.17v37.24Z"/>
  <path class="cls-1" d="m76.12,61.54V28.05c1.16.13,2.02.23,3.04.35v37.27c-9.11-1.29-17.7.4-26.21,3.06,3.03-2.96,6.69-4.75,10.72-5.54,4-.78,8.09-1.09,12.45-1.64Z"/>
  <path class="cls-1" d="m18.77,65.68V28.5c.93-.16,1.83-.31,3.09-.52v33.95c8.54.03,16.55.98,23.14,6.74-8.47-2.54-17.02-4.32-26.23-2.98Z"/>
  <g>
    <path class="cls-2" d="m29,53.08c.23-1.64.45-3.28.7-4.91.14-.94.34-1.88.5-2.82.03-.16-.07-.34-.08-.51-.01-.36-.02-.72,0-1.08,0-.09.18-.24.24-.23.11.02.26.15.28.25.07.41.23.37.58.26.62-.2,1.27-.34,1.92-.43,1.05-.14,2.11-.1,3.14.19.25.07.51.18.73.31.85.52,1.15,1.35.85,2.31-.4,1.3-1.39,2.01-2.57,2.48-.55.22-1.14.35-1.71.53-.82.26-1.41.72-1.65,1.63-.36,1.33-.96,2.56-1.98,3.52-.15.14-.39.18-.59.27-.09-.2-.23-.4-.25-.61-.04-.38-.01-.76-.01-1.14-.04,0-.07,0-.11-.01Z"/>
    <path class="cls-2" d="m40.43,37.88c.33.18.54.32.77.41.23.09.53.09.58.41.05.35-.07.67-.37.87-.44.29-.92.36-1.43.26-.32-.06-.43.06-.46.37-.14,1.92-.21,3.84,0,5.77.11.98.31,1.92.72,2.84.59,1.3.82,2.7,1.06,4.1.09.54.17,1.08.23,1.63.01.11-.07.22-.11.34-.11-.05-.25-.08-.31-.16-.49-.67-.97-1.34-1.43-2.03-.26-.38-.49-.78-.69-1.19-.32-.66-.42-1.37-.35-2.09.22-2.12-.13-4.17-.65-6.2-.4-1.55-.8-3.09-.58-4.71.15-1.11.53-2.12,1.17-3.04.06-.09.14-.19.23-.26.27-.21.57-.1.57.24,0,.33-.07.66-.15.98-.06.24.01.33.23.42.39.15.76.34,1.12.54.23.13.26.31-.14.52Zm-.06.12c0-.26-.26-.53-.5-.53-.25,0-.5.27-.49.53,0,.28.23.52.5.51.27,0,.5-.24.49-.52Z"/>
    <path class="cls-2" d="m39.93,40.59c.18.58.36,1.15.53,1.73.33,1.15.74,2.28.68,3.5-.03.81-.19,1.59-.6,2.31-.03.06-.08.11-.21.28-.84-2.63-.66-5.22-.53-7.8.04,0,.08-.01.12-.02Z"/>
    <path class="cls-2" d="m38.36,49.23c-.06.5-.03,1.01-.49,1.23-.52.25-1.07.18-1.57-.11-.6-.35-.68-1.19-.09-1.56.46-.29,1.01-.44,1.54-.6.25-.08.46.09.51.38.04.24.07.47.1.66Z"/>
  </g>
  <path class="cls-2" d="m55.99,41.77l2.06-5.9,1.3-.11,3.02,5.48-1.38.11-2.51-4.85.53-.04-1.67,5.2-1.35.11Zm1.18-1.33l.25-1.03,2.94-.24.42.97-3.62.3Z"/>
  <path class="cls-2" d="m65.04,47.49v-5.71h2.79c.72,0,1.26.14,1.62.41.36.27.54.63.54,1.08,0,.3-.07.56-.22.78-.15.22-.35.39-.61.51-.26.12-.55.18-.88.18l.16-.34c.36,0,.68.06.95.18.27.12.49.29.65.52.16.23.24.51.24.84,0,.49-.19.87-.58,1.15-.39.27-.95.41-1.71.41h-2.95Zm1.31-1h1.55c.34,0,.6-.06.78-.17.18-.11.27-.29.27-.53s-.09-.42-.27-.54-.44-.17-.78-.17h-1.65v-.96h1.41c.32,0,.57-.06.74-.17.17-.11.26-.28.26-.51s-.09-.4-.26-.51c-.17-.11-.42-.16-.74-.16h-1.31v3.72Z"/>
  <path class="cls-2" d="m60.66,57.23c-.44,0-.85-.07-1.23-.22-.38-.14-.71-.35-.98-.62-.28-.27-.49-.58-.65-.94-.16-.36-.23-.75-.23-1.18s.08-.82.23-1.18c.16-.36.37-.67.65-.94.28-.27.61-.47.99-.62.38-.14.79-.22,1.23-.22.49,0,.94.09,1.35.26.4.17.74.42,1.01.75l-.86.78c-.19-.22-.41-.39-.65-.51-.24-.11-.5-.17-.79-.17-.27,0-.51.04-.73.13-.22.09-.42.22-.58.38s-.29.36-.38.58c-.09.22-.13.47-.13.74s.04.52.13.74c.09.22.22.42.38.58s.36.29.58.38c.22.09.47.13.73.13.28,0,.55-.06.79-.18.24-.12.46-.29.65-.51l.86.78c-.27.33-.61.58-1.01.76-.4.17-.85.26-1.35.26Z"/>
</svg>