<?xml version="1.0" encoding="UTF-8"?>
<svg id="Capa_1" data-name="Capa 1" xmlns="http://www.w3.org/2000/svg" xmlns:xlink="http://www.w3.org/1999/xlink" viewBox="0 0 131.59 134.29">
  <defs>
    <style>
      .cls-1 {
        fill: url(#Degradado_sin_nombre_46);
      }

      .cls-1, .cls-2, .cls-3, .cls-4, .cls-5 {
        stroke-width: 0px;
      }

      .cls-2 {
        fill: #bc1818;
      }

      .cls-3 {
        fill: url(#Degradado_sin_nombre_40);
      }

      .cls-4 {
        fill: url(#Degradado_sin_nombre_53);
      }

      .cls-6 {
        fill: #fff;
        font-family: MontserratRoman-Bold, Montserrat;
        font-size: 39.84px;
        font-variation-settings: 'wght' 700;
        font-weight: 700;
      }

      .cls-5 {
        fill: #ebbf0a;
      }
    </style>
    <radialGradient id="Degradado_sin_nombre_40" data-name="Degradado sin nombre 40" cx="67.4" cy="50.35" fx="67.4" fy="50.35" r="50.35" gradientUnits="userSpaceOnUse">
      <stop offset="0" stop-color="#fec708"/>
      <stop offset="0" stop-color="#fec70b"/>
      <stop offset=".03" stop-color="#fed239"/>
      <stop offset=".06" stop-color="#fedb62"/>
      <stop offset=".09" stop-color="#fee487"/>
      <stop offset=".13" stop-color="#feeba8"/>
      <stop offset=".17" stop-color="#fef1c3"/>
      <stop offset=".22" stop-color="#fef6d9"/>
      <stop offset=".27" stop-color="#fefaea"/>
      <stop offset=".33" stop-color="#fefdf6"/>
      <stop offset=".43" stop-color="#fefefd"/>
      <stop offset=".68" stop-color="#fff"/>
      <stop offset=".8" stop-color="#fefefd"/>
      <stop offset=".85" stop-color="#fefdf6"/>
      <stop offset=".88" stop-color="#fefaea"/>
      <stop offset=".9" stop-color="#fef6d9"/>
      <stop offset=".92" stop-color="#fef1c3"/>
      <stop offset=".94" stop-color="#feeba8"/>
      <stop offset=".96" stop-color="#fee487"/>
      <stop offset=".97" stop-color="#fedb62"/>
      <stop offset=".99" stop-color="#fed239"/>
      <stop offset="1" stop-color="#fec70b"/>
      <stop offset="1" stop-color="#fec708"/>
    </radialGradient>
    <linearGradient id="Degradado_sin_nombre_46" data-name="Degradado sin nombre 46" x1="27.09" y1="31.63" x2="110.28" y2="70.27" gradientUnits="userSpaceOnUse">
      <stop offset="0" stop-color="#fec708"/>
      <stop offset=".02" stop-color="#feca19"/>
      <stop offset=".1" stop-color="#fed855"/>
      <stop offset=".17" stop-color="#fee489"/>
      <stop offset=".24" stop-color="#feedb3"/>
      <stop offset=".31" stop-color="#fef5d4"/>
      <stop offset=".38" stop-color="#fefaeb"/>
      <stop offset=".44" stop-color="#fefdfa"/>
      <stop offset=".5" stop-color="#fff"/>
      <stop offset=".71" stop-color="#fee691"/>
      <stop offset=".91" stop-color="#fecf2e"/>
      <stop offset="1" stop-color="#fec708"/>
    </linearGradient>
    <linearGradient id="Degradado_sin_nombre_53" data-name="Degradado sin nombre 53" x1="-7.4" y1="90.41" x2="66.09" y2="90.41" gradientTransform="translate(34.19 -49.9) scale(1.13 1.11)" gradientUnits="userSpaceOnUse">
      <stop offset="0" stop-color="#fec708"/>
      <stop offset=".1" stop-color="#fed33e"/>
      <stop offset=".23" stop-color="#fee281"/>
      <stop offset=".35" stop-color="#feeeb7"/>
      <stop offset=".45" stop-color="#fef7de"/>
      <stop offset=".53" stop-color="#fefdf6"/>
      <stop offset=".58" stop-color="#fff"/>
      <stop offset=".62" stop-color="#fefcf3"/>
      <stop offset=".69" stop-color="#fef5d3"/>
      <stop offset=".78" stop-color="#fee9a0"/>
      <stop offset=".88" stop-color="#fed95a"/>
      <stop offset="1" stop-color="#fec708"/>
    </linearGradient>
  </defs>
  <g>
    <g>
      <path class="cls-3" d="m67.4,100.71c-27.77,0-50.36-22.59-50.36-50.35S39.63,0,67.4,0s50.35,22.59,50.35,50.36-22.59,50.35-50.35,50.35Z"/>
      <path class="cls-1" d="m67.4,4.49c-25.29,0-45.86,20.57-45.86,45.86s20.57,45.86,45.86,45.86,45.86-20.57,45.86-45.86S92.69,4.49,67.4,4.49Zm0,86.83c-22.62,0-40.97-18.34-40.97-40.97S44.77,9.39,67.4,9.39s40.97,18.34,40.97,40.97-18.34,40.97-40.97,40.97Z"/>
      <path class="cls-2" d="m108.38,79.43c-8.22,11.5-21.14,19.41-35.94,20.89l26.91,33.97,4.11-27.95,28.15,2.41-23.22-29.32Z"/>
      <path class="cls-2" d="m24.95,77.24L0,108.74l28.15-2.41,4.11,27.95,27.21-34.35c-14.48-2.3-26.92-10.81-34.52-22.69Z"/>
    </g>
    <path class="cls-4" d="m67.43,9.71c-22.96,0-41.63,18.31-41.63,40.81s18.67,40.81,41.63,40.81,41.63-18.31,41.63-40.81S90.39,9.71,67.43,9.71Z"/>
    <path class="cls-5" d="m67.58,13.78c-19.89,0-36.07,16.18-36.07,36.07s16.18,36.07,36.07,36.07,36.07-16.18,36.07-36.07S87.47,13.78,67.58,13.78Z"/>
  </g>
  <text class="cls-6" transform="translate(46.25 64.8)"><tspan x="0" y="0">10</tspan></text>
</svg>