<?xml version="1.0" encoding="UTF-8"?>
<svg id="Capa_1" data-name="Capa 1" xmlns="http://www.w3.org/2000/svg" xmlns:xlink="http://www.w3.org/1999/xlink" viewBox="0 0 107.67 133.67">
  <defs>
    <style>
      .cls-1 {
        fill: url(#Degradado_sin_nombre_12);
      }

      .cls-1, .cls-2, .cls-3 {
        stroke-width: 0px;
      }

      .cls-4 {
        fill: #fff;
        font-family: MontserratRoman-Bold, Montserrat;
        font-size: 46.21px;
        font-variation-settings: 'wght' 700;
        font-weight: 700;
      }

      .cls-2 {
        fill: #eac30f;
      }

      .cls-3 {
        fill: #59b251;
      }
    </style>
    <radialGradient id="Degradado_sin_nombre_12" data-name="Degradado sin nombre 12" cx="55.68" cy="60.49" fx="55.68" fy="60.49" r="86.71" gradientUnits="userSpaceOnUse">
      <stop offset=".36" stop-color="#fec708"/>
      <stop offset=".37" stop-color="#fecb1b"/>
      <stop offset=".4" stop-color="#fed64d"/>
      <stop offset=".44" stop-color="#fee99e"/>
      <stop offset=".48" stop-color="#fff"/>
      <stop offset=".51" stop-color="#fefaea"/>
      <stop offset=".57" stop-color="#feedb3"/>
      <stop offset=".66" stop-color="#feda5e"/>
      <stop offset=".74" stop-color="#fec708"/>
    </radialGradient>
  </defs>
  <path class="cls-3" d="m93.49,81.65c-7.86,18.54-20.63,32.72-38.14,42.65-1.2.68-2.06.55-3.17-.09-23.98-13.96-38.56-34.52-43.54-61.86-1.82-9.96-1-20.01-1.09-30.03,0-.63,1.01-1.5,1.74-1.87,12.14-6.13,24.31-12.2,36.48-18.28,1.47-.74,3.08-1.29,4.4-2.24,2.59-1.88,4.8-1.34,7.48.04,13.44,6.9,26.98,13.62,40.53,20.31,1.62.8,2.14,1.71,2.06,3.44-.15,3.16-.04,6.32-.04,10.96.55,11.82-1.5,24.69-6.71,36.97Z"/>
  <path class="cls-2" d="m91.77,35.6c-12.37-6.15-24.73-12.34-37.08-18.54-.91-.46-1.63-.5-2.57-.02-9.3,4.7-18.62,9.36-27.95,14-3.53,1.76-7.11,3.43-10.66,5.15v19.22c.23,2.04.37,4.09.69,6.11,3.81,23.9,16.28,41.64,37.72,53.01,1.11.59,1.93.51,3-.04,8.81-4.53,16.4-10.57,22.61-18.29,8.7-10.79,13.99-23.08,15.14-36.91.59-7.12.29-14.32.47-21.48.03-1.15-.38-1.71-1.38-2.21Z"/>
  <path class="cls-1" d="m100.09,23.22c-14.84-7.41-29.67-14.84-44.5-22.27-.54-.27-1.03-.63-1.54-.95h-.41c-.52.32-1.01.68-1.55.95C35.49,9.27,18.91,17.6,2.28,25.83.54,26.69-.02,27.67.02,29.56c.12,6.25-.18,12.52.11,18.77.27,5.96.53,12,1.72,17.81,6.12,29.8,22.71,51.9,49.58,66.25.64.34,1.19.85,1.79,1.28h.83c4.11-2.43,8.39-4.61,12.3-7.34,22.49-15.67,35.91-37.09,40.19-64.18.49-3.1.77-6.23,1.15-9.34v-25.99c-2.53-1.2-5.08-2.35-7.59-3.59Zm-6.59,58.64c-7.86,18.54-20.63,32.72-38.14,42.65-1.2.68-2.06.55-3.17-.09-23.98-13.96-38.56-34.52-43.54-61.86-1.82-9.96-1-20.01-1.09-30.03,0-.63,1.01-1.5,1.74-1.87,12.14-6.13,24.31-12.2,36.48-18.28,1.47-.74,3.08-1.29,4.4-2.24,2.59-1.88,4.8-1.34,7.48.04,13.44,6.9,26.98,13.62,40.53,20.31,1.62.8,2.14,1.71,2.06,3.44-.15,3.16-.04,6.32-.04,10.96.55,11.82-1.5,24.69-6.71,36.97Z"/>
  <text class="cls-4" transform="translate(24.56 82.59)"><tspan x="0" y="0">50</tspan></text>
</svg>