<?xml version="1.0" encoding="UTF-8"?>
<svg id="Capa_1" data-name="Capa 1" xmlns="http://www.w3.org/2000/svg" xmlns:xlink="http://www.w3.org/1999/xlink" viewBox="0 0 103.62 128.64">
  <defs>
    <style>
      .cls-1 {
        fill: url(#Degradado_sin_nombre_12);
      }

      .cls-1, .cls-2, .cls-3 {
        stroke-width: 0px;
      }

      .cls-2 {
        fill: #eac30f;
      }

      .cls-3 {
        fill: #fec708;
      }

      .cls-4 {
        fill: #fff;
        font-family: MontserratRoman-Bold, Montserrat;
        font-size: 44.47px;
        font-variation-settings: 'wght' 700;
        font-weight: 700;
      }
    </style>
    <radialGradient id="Degradado_sin_nombre_12" data-name="Degradado sin nombre 12" cx="53.58" cy="58.21" fx="53.58" fy="58.21" r="83.45" gradientUnits="userSpaceOnUse">
      <stop offset=".36" stop-color="#fec708"/>
      <stop offset=".37" stop-color="#fecb1b"/>
      <stop offset=".4" stop-color="#fed64d"/>
      <stop offset=".44" stop-color="#fee99e"/>
      <stop offset=".48" stop-color="#fff"/>
      <stop offset=".51" stop-color="#fefaea"/>
      <stop offset=".57" stop-color="#feedb3"/>
      <stop offset=".66" stop-color="#feda5e"/>
      <stop offset=".74" stop-color="#fec708"/>
    </radialGradient>
  </defs>
  <path class="cls-3" d="m89.97,78.58c-7.56,17.84-19.85,31.48-36.7,41.05-1.15.65-1.99.53-3.05-.09-23.08-13.44-37.11-33.22-41.9-59.53-1.75-9.58-.96-19.26-1.05-28.9,0-.6.97-1.44,1.68-1.8,11.68-5.9,23.4-11.74,35.1-17.59,1.42-.71,2.97-1.24,4.23-2.16,2.49-1.81,4.62-1.29,7.2.04,12.94,6.64,25.96,13.11,39.01,19.54,1.56.77,2.06,1.64,1.98,3.31-.14,3.04-.04,6.08-.04,10.55.53,11.38-1.44,23.76-6.45,35.58Z"/>
  <path class="cls-2" d="m88.31,34.26c-11.91-5.92-23.8-11.87-35.68-17.85-.88-.44-1.57-.48-2.47-.02-8.95,4.52-17.92,9.01-26.89,13.47-3.4,1.69-6.84,3.3-10.26,4.95v18.5c.22,1.96.35,3.94.66,5.88,3.67,23,15.67,40.07,36.3,51.01,1.07.57,1.86.49,2.89-.04,8.48-4.36,15.78-10.18,21.76-17.6,8.37-10.39,13.46-22.21,14.57-35.52.57-6.86.28-13.78.45-20.67.03-1.11-.36-1.65-1.33-2.13Z"/>
  <path class="cls-1" d="m96.32,22.35c-14.28-7.13-28.56-14.28-42.83-21.43-.52-.26-.99-.61-1.49-.92h-.4c-.5.31-.97.66-1.49.92C34.15,8.92,18.2,16.94,2.2,24.86.52,25.68-.02,26.63.02,28.45c.12,6.02-.17,12.05.1,18.06.26,5.73.51,11.55,1.66,17.14,5.89,28.68,21.86,49.95,47.71,63.76.62.33,1.15.81,1.72,1.23h.79c3.95-2.34,8.07-4.44,11.83-7.06,21.64-15.08,34.56-35.69,38.67-61.76.47-2.98.74-5.99,1.11-8.99v-25.01c-2.43-1.15-4.89-2.26-7.3-3.46Zm-6.34,56.43c-7.56,17.84-19.85,31.48-36.7,41.05-1.15.65-1.99.53-3.05-.09-23.08-13.44-37.11-33.22-41.9-59.53-1.75-9.58-.96-19.26-1.05-28.9,0-.6.97-1.44,1.68-1.8,11.68-5.9,23.4-11.74,35.1-17.59,1.42-.71,2.97-1.24,4.23-2.16,2.49-1.81,4.62-1.29,7.2.04,12.94,6.64,25.96,13.11,39.01,19.54,1.56.77,2.06,1.64,1.98,3.31-.14,3.04-.04,6.08-.04,10.55.53,11.38-1.44,23.76-6.45,35.58Z"/>
  <text class="cls-4" transform="translate(38.73 79.48)"><tspan x="0" y="0">5</tspan></text>
</svg>