<?xml version="1.0" encoding="UTF-8"?>
<svg id="Capa_1" data-name="Capa 1" xmlns="http://www.w3.org/2000/svg" xmlns:xlink="http://www.w3.org/1999/xlink" viewBox="0 0 90.02 111.75">
  <defs>
    <style>
      .cls-1 {
        fill: url(#Degradado_sin_nombre_12);
      }

      .cls-1, .cls-2, .cls-3 {
        stroke-width: 0px;
      }

      .cls-2 {
        fill: #4abbec;
      }

      .cls-4 {
        fill: #fff;
        font-family: MontserratRoman-Bold, Montserrat;
        font-size: 38.63px;
        font-variation-settings: 'wght' 700;
        font-weight: 700;
      }

      .cls-3 {
        fill: #eac30f;
      }
    </style>
    <radialGradient id="Degradado_sin_nombre_12" data-name="Degradado sin nombre 12" cx="46.55" cy="50.57" fx="46.55" fy="50.57" r="72.49" gradientUnits="userSpaceOnUse">
      <stop offset=".36" stop-color="#fec708"/>
      <stop offset=".37" stop-color="#fecb1b"/>
      <stop offset=".4" stop-color="#fed64d"/>
      <stop offset=".44" stop-color="#fee99e"/>
      <stop offset=".48" stop-color="#fff"/>
      <stop offset=".51" stop-color="#fefaea"/>
      <stop offset=".57" stop-color="#feedb3"/>
      <stop offset=".66" stop-color="#feda5e"/>
      <stop offset=".74" stop-color="#fec708"/>
    </radialGradient>
  </defs>
  <path class="cls-2" d="m78.16,68.26c-6.57,15.5-17.24,27.35-31.89,35.66-1,.57-1.72.46-2.65-.08-20.05-11.67-32.24-28.86-36.4-51.71-1.52-8.33-.84-16.73-.91-25.11,0-.53.84-1.25,1.46-1.56,10.15-5.13,20.33-10.2,30.5-15.28,1.23-.62,2.58-1.07,3.68-1.87,2.16-1.57,4.01-1.12,6.25.03,11.24,5.77,22.56,11.39,33.89,16.98,1.36.67,1.79,1.43,1.72,2.88-.12,2.64-.03,5.29-.03,9.16.46,9.88-1.25,20.64-5.61,30.91Z"/>
  <path class="cls-3" d="m76.72,29.76c-10.35-5.14-20.68-10.31-31-15.5-.76-.38-1.37-.41-2.15-.02-7.77,3.93-15.56,7.82-23.36,11.7-2.95,1.47-5.94,2.87-8.91,4.3v16.07c.19,1.7.31,3.42.58,5.11,3.19,19.98,13.61,34.81,31.54,44.32.93.49,1.61.43,2.51-.03,7.37-3.79,13.71-8.84,18.91-15.29,7.27-9.02,11.7-19.3,12.65-30.85.49-5.96.25-11.97.39-17.96.02-.96-.31-1.43-1.15-1.85Z"/>
  <path class="cls-1" d="m83.67,19.41C71.27,13.22,58.87,7.01,46.47.8c-.45-.23-.86-.53-1.29-.8h-.34c-.43.27-.84.57-1.3.8C29.67,7.75,15.81,14.71,1.91,21.59.46,22.31-.01,23.14.02,24.72c.1,5.23-.15,10.47.09,15.69.23,4.98.44,10.03,1.44,14.89,5.11,24.91,18.99,43.39,41.45,55.39.53.29,1,.71,1.49,1.07h.69c3.43-2.03,7.01-3.86,10.28-6.13,18.8-13.1,30.02-31.01,33.6-53.66.41-2.59.65-5.21.96-7.81v-21.73c-2.12-1-4.25-1.96-6.34-3.01Zm-5.51,49.03c-6.57,15.5-17.24,27.35-31.89,35.66-1,.57-1.72.46-2.65-.08-20.05-11.67-32.24-28.86-36.4-51.71-1.52-8.33-.84-16.73-.91-25.11,0-.53.84-1.25,1.46-1.56,10.15-5.13,20.33-10.2,30.5-15.28,1.23-.62,2.58-1.07,3.68-1.87,2.16-1.57,4.01-1.12,6.25.03,11.24,5.77,22.56,11.39,33.89,16.98,1.36.67,1.79,1.43,1.72,2.88-.12,2.64-.03,5.29-.03,9.16.46,9.88-1.25,20.64-5.61,30.91Z"/>
  <text class="cls-4" transform="translate(20.63 69.05)"><tspan x="0" y="0">20</tspan></text>
</svg>