<?xml version="1.0" encoding="UTF-8"?>
<svg id="Capa_1" data-name="Capa 1" xmlns="http://www.w3.org/2000/svg" xmlns:xlink="http://www.w3.org/1999/xlink" viewBox="0 0 98.84 122.71">
  <defs>
    <style>
      .cls-1 {
        fill: url(#Degradado_sin_nombre_12);
      }

      .cls-1, .cls-2, .cls-3 {
        stroke-width: 0px;
      }

      .cls-4 {
        fill: #fff;
        font-family: MontserratRoman-Bold, Montserrat;
        font-size: 42.42px;
        font-variation-settings: 'wght' 700;
        font-weight: 700;
      }

      .cls-2 {
        fill: #bc1818;
      }

      .cls-3 {
        fill: #eac30f;
      }
    </style>
    <radialGradient id="Degradado_sin_nombre_12" data-name="Degradado sin nombre 12" cx="51.11" cy="55.53" fx="51.11" fy="55.53" r="79.6" gradientUnits="userSpaceOnUse">
      <stop offset=".36" stop-color="#fec708"/>
      <stop offset=".37" stop-color="#fecb1b"/>
      <stop offset=".4" stop-color="#fed64d"/>
      <stop offset=".44" stop-color="#fee99e"/>
      <stop offset=".48" stop-color="#fff"/>
      <stop offset=".51" stop-color="#fefaea"/>
      <stop offset=".57" stop-color="#feedb3"/>
      <stop offset=".66" stop-color="#feda5e"/>
      <stop offset=".74" stop-color="#fec708"/>
    </radialGradient>
  </defs>
  <path class="cls-2" d="m85.82,74.96c-7.21,17.02-18.93,30.03-35.01,39.15-1.1.62-1.89.51-2.91-.08-22.01-12.82-35.4-31.69-39.97-56.79-1.67-9.14-.92-18.37-1-27.57,0-.58.93-1.37,1.6-1.71,11.15-5.63,22.32-11.2,33.49-16.78,1.35-.68,2.83-1.18,4.04-2.06,2.38-1.72,4.4-1.23,6.87.04,12.34,6.34,24.77,12.51,37.21,18.64,1.49.74,1.96,1.57,1.89,3.16-.13,2.9-.04,5.8-.04,10.06.5,10.85-1.38,22.66-6.16,33.94Z"/>
  <path class="cls-3" d="m84.25,32.68c-11.36-5.65-22.7-11.32-34.04-17.02-.84-.42-1.5-.46-2.36-.02-8.54,4.31-17.09,8.59-25.65,12.85-3.24,1.61-6.52,3.15-9.79,4.72v17.65c.21,1.87.34,3.75.63,5.61,3.5,21.94,14.95,38.22,34.63,48.66,1.02.54,1.77.47,2.75-.04,8.09-4.16,15.05-9.71,20.76-16.79,7.99-9.91,12.84-21.19,13.9-33.88.54-6.54.27-13.15.43-19.72.03-1.06-.34-1.57-1.26-2.03Z"/>
  <path class="cls-1" d="m91.88,21.32c-13.63-6.8-27.24-13.62-40.85-20.44-.49-.25-.95-.58-1.42-.88h-.38c-.47.29-.93.63-1.42.88-15.23,7.63-30.45,15.28-45.71,22.83C.5,24.5-.02,25.41.02,27.14c.11,5.74-.16,11.5.1,17.23.25,5.47.49,11.01,1.58,16.35,5.62,27.36,20.85,47.65,45.51,60.82.59.31,1.09.78,1.64,1.17h.76c3.77-2.23,7.7-4.24,11.29-6.73,20.65-14.38,32.96-34.05,36.89-58.92.45-2.84.71-5.72,1.06-8.58v-23.86c-2.32-1.1-4.67-2.15-6.96-3.3Zm-6.05,53.83c-7.21,17.02-18.93,30.03-35.01,39.15-1.1.62-1.89.51-2.91-.08-22.01-12.82-35.4-31.69-39.97-56.79-1.67-9.14-.92-18.37-1-27.57,0-.58.93-1.37,1.6-1.71,11.15-5.63,22.32-11.2,33.49-16.78,1.35-.68,2.83-1.18,4.04-2.06,2.38-1.72,4.4-1.23,6.87.04,12.34,6.34,24.77,12.51,37.21,18.64,1.49.74,1.96,1.57,1.89,3.16-.13,2.9-.04,5.8-.04,10.06.5,10.85-1.38,22.66-6.16,33.94Z"/>
  <text class="cls-4" transform="translate(26.85 75.82)"><tspan x="0" y="0">10</tspan></text>
</svg>