<?xml version="1.0" encoding="UTF-8"?>
<svg id="Capa_1" data-name="Capa 1" xmlns="http://www.w3.org/2000/svg" xmlns:xlink="http://www.w3.org/1999/xlink" viewBox="0 0 86.62 107.53">
  <defs>
    <style>
      .cls-1 {
        fill: url(#Degradado_sin_nombre_12);
      }

      .cls-1, .cls-2, .cls-3 {
        stroke-width: 0px;
      }

      .cls-2 {
        fill: #ed6e21;
      }

      .cls-4 {
        fill: #fff;
        font-family: MontserratRoman-Bold, Montserrat;
        font-size: 37.17px;
        font-variation-settings: 'wght' 700;
        font-weight: 700;
      }

      .cls-3 {
        fill: #eac30f;
      }
    </style>
    <radialGradient id="Degradado_sin_nombre_12" data-name="Degradado sin nombre 12" cx="44.79" cy="48.67" fx="44.79" fy="48.67" r="69.76" gradientUnits="userSpaceOnUse">
      <stop offset=".36" stop-color="#fec708"/>
      <stop offset=".37" stop-color="#fecb1b"/>
      <stop offset=".4" stop-color="#fed64d"/>
      <stop offset=".44" stop-color="#fee99e"/>
      <stop offset=".48" stop-color="#fff"/>
      <stop offset=".51" stop-color="#fefaea"/>
      <stop offset=".57" stop-color="#feedb3"/>
      <stop offset=".66" stop-color="#feda5e"/>
      <stop offset=".74" stop-color="#fec708"/>
    </radialGradient>
  </defs>
  <path class="cls-2" d="m75.21,65.69c-6.32,14.91-16.59,26.32-30.68,34.31-.96.55-1.66.45-2.55-.07-19.29-11.23-31.02-27.77-35.03-49.76-1.46-8.01-.8-16.1-.88-24.16,0-.51.81-1.2,1.4-1.5,9.77-4.93,19.56-9.81,29.35-14.71,1.19-.59,2.48-1.03,3.54-1.8,2.08-1.51,3.86-1.08,6.02.03,10.81,5.55,21.7,10.96,32.61,16.34,1.31.64,1.72,1.37,1.65,2.77-.12,2.54-.03,5.09-.03,8.82.44,9.51-1.21,19.86-5.39,29.74Z"/>
  <path class="cls-3" d="m73.83,28.64c-9.95-4.95-19.9-9.92-29.83-14.92-.73-.37-1.31-.4-2.07-.02-7.48,3.78-14.98,7.53-22.48,11.26-2.84,1.41-5.72,2.76-8.58,4.14v15.47c.18,1.64.29,3.29.55,4.92,3.07,19.23,13.1,33.5,30.35,42.64.89.47,1.55.41,2.41-.03,7.09-3.64,13.19-8.51,18.19-14.71,7-8.68,11.25-18.57,12.18-29.69.48-5.73.24-11.52.38-17.28.02-.93-.3-1.38-1.11-1.78Z"/>
  <path class="cls-1" d="m80.52,18.68C68.58,12.72,56.65,6.75,44.72.77c-.43-.22-.83-.51-1.24-.77h-.33c-.41.26-.81.55-1.25.77C28.55,7.45,15.22,14.16,1.84,20.78.44,21.47-.01,22.26.02,23.78c.1,5.03-.14,10.07.09,15.1.22,4.79.43,9.65,1.39,14.33,4.92,23.97,18.27,41.75,39.88,53.3.51.27.96.68,1.44,1.03h.66c3.3-1.96,6.75-3.71,9.89-5.9,18.09-12.6,28.89-29.84,32.33-51.63.39-2.49.62-5.01.93-7.52v-20.91c-2.04-.96-4.09-1.89-6.1-2.89Zm-5.3,47.18c-6.32,14.91-16.59,26.32-30.68,34.31-.96.55-1.66.45-2.55-.07-19.29-11.23-31.02-27.77-35.03-49.76-1.46-8.01-.8-16.1-.88-24.16,0-.51.81-1.2,1.4-1.5,9.77-4.93,19.56-9.81,29.35-14.71,1.19-.59,2.48-1.03,3.54-1.8,2.08-1.51,3.86-1.08,6.02.03,10.81,5.55,21.7,10.96,32.61,16.34,1.31.64,1.72,1.37,1.65,2.77-.12,2.54-.03,5.09-.03,8.82.44,9.51-1.21,19.86-5.39,29.74Z"/>
  <text class="cls-4" transform="translate(25.09 66.44)"><tspan x="0" y="0">15</tspan></text>
</svg>