<?xml version="1.0" encoding="UTF-8"?>
<svg id="Capa_1" data-name="Capa 1" xmlns="http://www.w3.org/2000/svg" xmlns:xlink="http://www.w3.org/1999/xlink" viewBox="0 0 133.99 133.98">
  <defs>
    <style>
      .cls-1 {
        fill: url(#Degradado_sin_nombre_46);
      }

      .cls-1, .cls-2, .cls-3, .cls-4, .cls-5 {
        stroke-width: 0px;
      }

      .cls-2 {
        fill: url(#Degradado_sin_nombre_40);
      }

      .cls-3 {
        fill: url(#Degradado_sin_nombre_53);
      }

      .cls-6 {
        fill: #fff;
        font-family: MontserratRoman-Bold, Montserrat;
        font-size: 56.14px;
        font-variation-settings: 'wght' 700;
        font-weight: 700;
      }

      .cls-4 {
        fill: #59b251;
      }

      .cls-5 {
        fill: #ebbf0a;
      }
    </style>
    <linearGradient id="Degradado_sin_nombre_53" data-name="Degradado sin nombre 53" x1="-19.55" y1="105.52" x2="78.22" y2="105.52" gradientTransform="translate(33.8 -49.99) scale(1.13 1.11)" gradientUnits="userSpaceOnUse">
      <stop offset="0" stop-color="#fec708"/>
      <stop offset=".1" stop-color="#fed33e"/>
      <stop offset=".23" stop-color="#fee281"/>
      <stop offset=".35" stop-color="#feeeb7"/>
      <stop offset=".45" stop-color="#fef7de"/>
      <stop offset=".53" stop-color="#fefdf6"/>
      <stop offset=".58" stop-color="#fff"/>
      <stop offset=".62" stop-color="#fefcf3"/>
      <stop offset=".69" stop-color="#fef5d3"/>
      <stop offset=".78" stop-color="#fee9a0"/>
      <stop offset=".88" stop-color="#fed95a"/>
      <stop offset="1" stop-color="#fec708"/>
    </linearGradient>
    <radialGradient id="Degradado_sin_nombre_40" data-name="Degradado sin nombre 40" cx="66.99" cy="66.99" fx="66.99" fy="66.99" r="66.99" gradientUnits="userSpaceOnUse">
      <stop offset="0" stop-color="#fec708"/>
      <stop offset="0" stop-color="#fec70b"/>
      <stop offset=".03" stop-color="#fed239"/>
      <stop offset=".06" stop-color="#fedb62"/>
      <stop offset=".09" stop-color="#fee487"/>
      <stop offset=".13" stop-color="#feeba8"/>
      <stop offset=".17" stop-color="#fef1c3"/>
      <stop offset=".22" stop-color="#fef6d9"/>
      <stop offset=".27" stop-color="#fefaea"/>
      <stop offset=".33" stop-color="#fefdf6"/>
      <stop offset=".43" stop-color="#fefefd"/>
      <stop offset=".68" stop-color="#fff"/>
      <stop offset=".8" stop-color="#fefefd"/>
      <stop offset=".85" stop-color="#fefdf6"/>
      <stop offset=".88" stop-color="#fefaea"/>
      <stop offset=".9" stop-color="#fef6d9"/>
      <stop offset=".92" stop-color="#fef1c3"/>
      <stop offset=".94" stop-color="#feeba8"/>
      <stop offset=".96" stop-color="#fee487"/>
      <stop offset=".97" stop-color="#fedb62"/>
      <stop offset=".99" stop-color="#fed239"/>
      <stop offset="1" stop-color="#fec70b"/>
      <stop offset="1" stop-color="#fec708"/>
    </radialGradient>
    <linearGradient id="Degradado_sin_nombre_46" data-name="Degradado sin nombre 46" x1="13.36" y1="42.09" x2="124.04" y2="93.48" gradientUnits="userSpaceOnUse">
      <stop offset="0" stop-color="#fec708"/>
      <stop offset=".02" stop-color="#feca19"/>
      <stop offset=".1" stop-color="#fed855"/>
      <stop offset=".17" stop-color="#fee489"/>
      <stop offset=".24" stop-color="#feedb3"/>
      <stop offset=".31" stop-color="#fef5d4"/>
      <stop offset=".38" stop-color="#fefaeb"/>
      <stop offset=".44" stop-color="#fefdfa"/>
      <stop offset=".5" stop-color="#fff"/>
      <stop offset=".71" stop-color="#fee691"/>
      <stop offset=".91" stop-color="#fecf2e"/>
      <stop offset="1" stop-color="#fec708"/>
    </linearGradient>
  </defs>
  <path class="cls-3" d="m67.04,12.91c-30.54,0-55.38,24.35-55.38,54.29s24.84,54.29,55.38,54.29,55.38-24.35,55.38-54.29S97.58,12.91,67.04,12.91Z"/>
  <g>
    <path class="cls-2" d="m66.99,133.98C30.05,133.98,0,103.93,0,66.99S30.05,0,66.99,0s66.99,30.05,66.99,66.99-30.05,66.99-66.99,66.99Z"/>
    <path class="cls-1" d="m66.99,5.97C33.35,5.97,5.98,33.35,5.98,66.99s27.37,61.02,61.02,61.02,61.02-27.37,61.02-61.02S100.64,5.97,66.99,5.97Zm0,115.52c-30.1,0-54.5-24.4-54.5-54.5S36.89,12.49,66.99,12.49s54.5,24.4,54.5,54.5-24.4,54.5-54.5,54.5Z"/>
  </g>
  <g>
    <path class="cls-5" d="m73.28,60.17c-.46.01-.62-.13-.75-.55-1.76-5.8-3.54-11.6-5.32-17.39-.05-.16-.11-.32-.2-.56-.07.19-.1.28-.13.36-1.79,5.81-3.59,11.61-5.36,17.43-.14.46-.35.56-.8.55-6.11-.1-12.21-.17-18.32-.25-.14,0-.28.01-.56.02,5.41,3.76,10.7,7.44,16.01,11.12-2.15,6.08-4.28,12.14-6.46,18.29.17-.12.25-.16.32-.22,4.93-3.63,9.86-7.25,14.77-10.89.39-.29.64-.31,1.05,0,4.47,3.32,8.96,6.62,13.44,9.92.54.4,1.08.79,1.73,1.26-.1-.32-.16-.52-.23-.71-1.95-5.76-3.91-11.51-5.87-17.26-.09-.27-.05-.43.2-.6,1.41-.97,2.81-1.96,4.21-2.94,3.62-2.54,7.24-5.07,10.86-7.61.12-.09.24-.19.43-.34-2.24.05-4.35.09-6.46.13-4.19.08-8.38.15-12.58.25Z"/>
    <path class="cls-5" d="m66.99,19.01c-26.46,0-47.98,21.52-47.98,47.98s21.52,47.98,47.98,47.98,47.98-21.52,47.98-47.98-21.52-47.98-47.98-47.98Z"/>
  </g>
  <path class="cls-4" d="m52.52,83.29c1.47-2.09,2.7-3.86,3.96-5.6,9.24-12.78,20.21-23.86,32.79-33.35,2.94-2.22,6-4.28,8.99-6.43.85-.61,1.7-.83,2.37.14.65.94,0,1.61-.7,2.2-9.35,8.08-17.82,16.97-25.05,27.01-5.92,8.22-10.84,17.02-15.07,26.21-.85,1.85-1.82,3.56-3.9,4.27-3.13,1.07-6.1-.42-7.62-3.44-2.53-5.02-4.99-10.11-8-14.84-2.5-3.92-5.73-7.38-8.66-11.03-.63-.78-1.13-1.49-.17-2.33.8-.69,1.48-.16,2.09.3,3.31,2.52,6.72,4.92,9.87,7.64,2.91,2.51,5.53,5.36,8.27,8.08.3.3.5.69.84,1.17Z"/>
  <text class="cls-6" transform="translate(49.01 88.39)"><tspan x="0" y="0">5</tspan></text>
</svg>