<?xml version="1.0" encoding="UTF-8"?>
<svg id="Capa_1" data-name="Capa 1" xmlns="http://www.w3.org/2000/svg" viewBox="0 0 118.94 125.96">
  <defs>
    <style>
      .cls-1 {
        fill: #ed6e21;
      }

      .cls-1, .cls-2 {
        stroke-width: 0px;
      }

      .cls-2 {
        fill: #59b251;
      }
    </style>
  </defs>
  <path class="cls-2" d="m53.06,125.95c-21.17-.36-38.65-8.55-52.34-24.77-.88-1.04-.93-1.79-.28-2.96,6.43-11.5,15.59-20.03,27.52-25.63,1.01-.48,1.73-.47,2.71.21,13.72,9.58,31,9.57,44.82,0,.85-.59,1.51-.81,2.54-.33,11.83,5.59,21.03,14.01,27.51,25.4.75,1.32.79,2.19-.27,3.44-11.9,14.07-26.9,22.32-45.26,24.35-.87.1-1.75.24-2.62.27-1.44.05-2.89.01-4.33.01Z"/>
  <path class="cls-2" d="m53.19,8.64c18.04.07,32.41,14.65,32.32,32.78-.09,17.69-14.88,32.23-32.67,32.11-17.88-.12-32.28-14.76-32.21-32.75.07-17.79,14.69-32.22,32.56-32.14Z"/>
  <polygon class="cls-1" points="118.94 14.98 103.96 14.98 103.96 0 88.98 0 88.98 14.98 74 14.98 74 29.96 88.98 29.96 88.98 44.94 103.96 44.94 103.96 29.96 118.94 29.96 118.94 14.98"/>
</svg>