<?xml version="1.0" encoding="UTF-8"?>
<svg id="Capa_1" data-name="Capa 1" xmlns="http://www.w3.org/2000/svg" viewBox="0 0 99.1 89.18">
  <defs>
    <style>
      .cls-1 {
        fill: #4abbec;
      }

      .cls-1, .cls-2 {
        stroke-width: 0px;
      }

      .cls-3 {
        font-size: 4.77px;
      }

      .cls-3, .cls-4 {
        fill: #fff;
        font-family: MontserratRoman-Bold, Montserrat;
        font-variation-settings: 'wght' 700;
        font-weight: 700;
      }

      .cls-2 {
        fill: #ebbf0a;
      }

      .cls-4 {
        font-size: 26.4px;
        letter-spacing: .1em;
      }
    </style>
  </defs>
  <path class="cls-2" d="m75.22,8.29c-1.79-1.5-3.9-2.38-6.13-3-1.26-.35-2.55-.62-3.87-.93,0-.2-.02-.38,0-.55C65.47,1.5,64.01-.01,61.43,0c-12.91.06-25.82.03-38.72.03-.35,0-.71-.02-1.06,0-1.8.13-2.96,1.38-2.97,3.18,0,.38,0,.76,0,1.18-.33.07-.62.13-.9.18-2.52.49-4.98,1.14-7.23,2.43-3.68,2.11-5.95,5.25-5.68,9.54.44,7,3.5,12.61,9.8,16.11,3.85,2.14,8.12,2.84,12.43,3.28.61.06.99.28,1.39.75,1.08,1.27,2.18,2.55,3.38,3.71,2.77,2.65,4.44,5.81,4.33,9.67-.09,3.28-.49,6.56-.77,9.84-.01.17-.15.36-.29.47-1.48,1.14-3,2.24-4.47,3.4-.99.79-1.52,1.85-1.47,3.15.01.35,0,.7,0,1.21-.43,0-.75,0-1.07,0-3.77.08-6.26,2.63-6.27,6.39,0,1.35.03,2.71-.02,4.06,0,.26-.25.66-.48.75-1.79.73-2.81,2.05-3.17,3.92-.12.63-.25,1.27-.38,1.9-.5,2.57.69,4.01,3.34,4.01,13.91,0,27.81,0,41.72,0,.32,0,.65-.02.96-.07,1.62-.29,2.64-1.74,2.35-3.35-.17-.95-.38-1.9-.58-2.85-.35-1.69-1.36-2.85-2.94-3.47-.53-.2-.64-.47-.63-.97.02-1.44.04-2.88,0-4.32-.08-3.23-2.38-5.66-5.59-5.96-.55-.05-1.1-.06-1.75-.1,0-.53.09-1.01-.02-1.45-.19-.75-.31-1.68-.82-2.16-1.53-1.43-3.25-2.67-4.87-4.01-.23-.19-.48-.5-.51-.77-.25-2.46-.4-4.92-.69-7.37-.55-4.6.77-8.51,4.05-11.79,1.29-1.28,2.46-2.67,3.72-3.98.26-.27.64-.5,1-.56,1.99-.34,4.02-.55,6-.95,8.66-1.76,14.15-6.89,16.16-15.54,1.01-4.37.06-8.23-3.5-11.22ZM13.9,27.79c-3.29-2.84-4.97-6.58-5.41-10.84-.26-2.51.78-4.59,2.83-6.11,2.23-1.65,4.84-2.3,7.62-2.79.81,8.37,2.62,16.42,6.59,24.06-4.29-.67-8.35-1.51-11.62-4.32Zm61.31-9.27c-1.54,6.93-5.73,11.26-12.7,12.81-1.31.29-2.63.53-4.16.83,3.98-7.68,5.79-15.7,6.61-24.11,3.44.67,6.8,1.39,9.12,4.28,1.47,1.84,1.62,3.99,1.14,6.2Z"/>
  <text class="cls-4" transform="translate(25.22 28.73)"><tspan x="0" y="0">#1</tspan></text>
  <polygon class="cls-1" points="0 68.2 86.51 68.2 74.42 77.11 86.51 85.26 0 85.23 12.03 76.85 0 68.2"/>
  <text class="cls-3" transform="translate(26.38 78.24)"><tspan x="0" y="0">Tests Grades</tspan></text>
</svg>