<?xml version="1.0" encoding="UTF-8"?>
<svg id="Capa_1" data-name="Capa 1" xmlns="http://www.w3.org/2000/svg" viewBox="0 0 116.59 113.51">
  <defs>
    <style>
      .cls-1 {
        font-size: 33.6px;
        letter-spacing: .1em;
      }

      .cls-1, .cls-2 {
        fill: #fff;
        font-family: MontserratRoman-Bold, Montserrat;
        font-variation-settings: 'wght' 700;
        font-weight: 700;
      }

      .cls-3 {
        fill: #ed6e21;
      }

      .cls-3, .cls-4 {
        stroke-width: 0px;
      }

      .cls-2 {
        font-size: 6.07px;
      }

      .cls-4 {
        fill: #ebbf0a;
      }
    </style>
  </defs>
  <path class="cls-4" d="m95.74,10.55c-2.28-1.91-4.97-3.03-7.8-3.82-1.61-.45-3.25-.78-4.93-1.18,0-.26-.02-.48,0-.7C83.34,1.91,81.47-.02,78.19,0c-16.43.08-32.86.04-49.29.04-.45,0-.9-.02-1.35.01-2.29.16-3.77,1.75-3.78,4.05,0,.48,0,.96,0,1.5-.42.09-.79.16-1.15.23-3.2.63-6.34,1.46-9.2,3.1-4.68,2.69-7.58,6.68-7.23,12.14.56,8.91,4.46,16.05,12.47,20.51,4.9,2.72,10.33,3.62,15.82,4.17.78.08,1.26.36,1.77.95,1.38,1.62,2.77,3.25,4.3,4.72,3.52,3.37,5.65,7.4,5.52,12.31-.12,4.18-.63,8.35-.98,12.52-.02.21-.2.46-.37.6-1.89,1.45-3.82,2.85-5.69,4.33-1.27,1.01-1.93,2.36-1.87,4.01.01.44,0,.89,0,1.54-.55,0-.96,0-1.36,0-4.79.11-7.97,3.34-7.97,8.13,0,1.72.03,3.44-.03,5.16-.01.33-.32.84-.61.96-2.28.93-3.58,2.61-4.03,4.99-.15.81-.32,1.61-.48,2.42-.64,3.27.88,5.1,4.25,5.1,17.7,0,35.4,0,53.1,0,.41,0,.82-.02,1.23-.09,2.07-.36,3.37-2.21,2.99-4.27-.22-1.21-.48-2.42-.73-3.62-.44-2.15-1.73-3.63-3.75-4.41-.67-.26-.81-.6-.8-1.23.03-1.83.05-3.67,0-5.5-.11-4.11-3.03-7.21-7.12-7.59-.7-.06-1.4-.08-2.23-.13,0-.67.12-1.29-.03-1.84-.25-.95-.39-2.14-1.04-2.75-1.95-1.82-4.13-3.4-6.2-5.11-.29-.24-.61-.64-.64-.99-.32-3.12-.5-6.26-.88-9.38-.7-5.85.98-10.83,5.16-15,1.64-1.63,3.14-3.4,4.74-5.07.33-.34.82-.64,1.28-.72,2.54-.44,5.11-.7,7.63-1.21,11.03-2.23,18.02-8.77,20.57-19.78,1.29-5.56.07-10.48-4.46-14.28ZM17.69,35.37c-4.19-3.61-6.33-8.37-6.89-13.8-.33-3.2.99-5.85,3.6-7.78,2.84-2.1,6.16-2.92,9.7-3.55,1.03,10.66,3.33,20.9,8.38,30.62-5.46-.85-10.63-1.92-14.79-5.5Zm78.04-11.8c-1.95,8.82-7.29,14.33-16.17,16.3-1.67.37-3.35.67-5.29,1.06,5.06-9.77,7.37-19.98,8.41-30.69,4.38.86,8.65,1.76,11.6,5.45,1.87,2.34,2.07,5.08,1.45,7.89Z"/>
  <text class="cls-1" transform="translate(32.1 36.57)"><tspan x="0" y="0">#1</tspan></text>
  <polygon class="cls-3" points="0 86.8 110.11 86.8 94.72 98.15 110.11 108.51 0 108.47 15.31 97.81 0 86.8"/>
  <text class="cls-2" transform="translate(27.05 99.58)"><tspan x="0" y="0">Activities Grades</tspan></text>
</svg>