<?xml version="1.0" encoding="UTF-8"?>
<svg id="Capa_1" data-name="Capa 1" xmlns="http://www.w3.org/2000/svg" viewBox="0 0 122.51 126.29">
  <defs>
    <style>
      .cls-1 {
        font-size: 37.38px;
        letter-spacing: .1em;
      }

      .cls-1, .cls-2 {
        fill: #fff;
        font-family: MontserratRoman-Bold, Montserrat;
        font-variation-settings: 'wght' 700;
        font-weight: 700;
      }

      .cls-3 {
        fill: #bc1818;
      }

      .cls-3, .cls-4 {
        stroke-width: 0px;
      }

      .cls-2 {
        font-size: 6.76px;
      }

      .cls-4 {
        fill: #ebbf0a;
      }
    </style>
  </defs>
  <path class="cls-4" d="m106.52,11.74c-2.53-2.12-5.53-3.37-8.68-4.25-1.79-.5-3.62-.87-5.49-1.32,0-.29-.02-.54,0-.78C92.72,2.13,90.64-.02,86.99,0c-18.28.09-36.56.04-54.83.04-.5,0-1-.02-1.5.01-2.55.18-4.19,1.95-4.21,4.5,0,.54,0,1.07,0,1.67-.47.09-.87.18-1.28.26-3.56.7-7.06,1.62-10.24,3.44-5.21,2.99-8.43,7.43-8.05,13.51.62,9.91,4.96,17.86,13.88,22.82,5.45,3.03,11.49,4.03,17.6,4.64.86.09,1.41.4,1.96,1.06,1.53,1.8,3.08,3.61,4.79,5.25,3.92,3.75,6.29,8.23,6.14,13.69-.13,4.65-.7,9.29-1.09,13.93-.02.24-.22.51-.42.67-2.1,1.61-4.25,3.17-6.33,4.82-1.41,1.12-2.15,2.62-2.08,4.47.02.49,0,.99,0,1.72-.62,0-1.07,0-1.51,0-5.33.12-8.87,3.72-8.87,9.05,0,1.92.04,3.83-.03,5.74-.01.37-.35.93-.68,1.06-2.54,1.03-3.98,2.9-4.49,5.56-.17.9-.36,1.79-.54,2.69-.71,3.64.98,5.68,4.72,5.68,19.69,0,39.39,0,59.08,0,.46,0,.92-.02,1.37-.1,2.3-.41,3.75-2.46,3.33-4.75-.24-1.35-.54-2.69-.82-4.03-.49-2.4-1.93-4.04-4.17-4.91-.75-.29-.9-.67-.89-1.37.03-2.04.05-4.08,0-6.12-.12-4.57-3.37-8.02-7.92-8.44-.78-.07-1.56-.09-2.48-.14,0-.75.13-1.44-.03-2.05-.27-1.06-.44-2.38-1.16-3.05-2.17-2.03-4.6-3.79-6.9-5.68-.33-.27-.68-.71-.72-1.1-.36-3.48-.56-6.97-.97-10.44-.77-6.51,1.08-12.05,5.74-16.69,1.82-1.82,3.49-3.79,5.27-5.64.36-.38.91-.71,1.42-.8,2.82-.49,5.69-.77,8.49-1.34,12.27-2.49,20.04-9.76,22.88-22.01,1.43-6.18.08-11.66-4.96-15.88ZM19.68,39.36c-4.66-4.02-7.04-9.32-7.66-15.35-.37-3.56,1.1-6.51,4-8.65,3.16-2.34,6.85-3.25,10.79-3.95,1.15,11.86,3.71,23.25,9.33,34.07-6.08-.95-11.83-2.13-16.46-6.12Zm86.82-13.13c-2.17,9.82-8.11,15.95-17.99,18.14-1.86.41-3.73.75-5.89,1.18,5.63-10.87,8.2-22.23,9.35-34.15,4.87.95,9.62,1.96,12.91,6.06,2.09,2.6,2.3,5.65,1.61,8.77Z"/>
  <text class="cls-1" transform="translate(35.71 40.69)"><tspan x="0" y="0">#1</tspan></text>
  <polygon class="cls-3" points="0 96.57 122.51 96.57 105.38 109.19 122.51 120.73 0 120.68 17.04 108.82 0 96.57"/>
  <text class="cls-2" transform="translate(22.84 110.79)"><tspan x="0" y="0">Activities Completed</tspan></text>
</svg>