<?xml version="1.0" encoding="UTF-8"?>
<svg id="Capa_1" data-name="Capa 1" xmlns="http://www.w3.org/2000/svg" viewBox="0 0 104.02 101.26">
  <defs>
    <style>
      .cls-1 {
        font-size: 29.97px;
        letter-spacing: .1em;
      }

      .cls-1, .cls-2 {
        fill: #fff;
        font-family: MontserratRoman-Bold, Montserrat;
        font-variation-settings: 'wght' 700;
        font-weight: 700;
      }

      .cls-2 {
        font-size: 5.42px;
      }

      .cls-3 {
        fill: #59b251;
      }

      .cls-3, .cls-4 {
        stroke-width: 0px;
      }

      .cls-4 {
        fill: #ebbf0a;
      }
    </style>
  </defs>
  <path class="cls-4" d="m85.41,9.41c-2.03-1.7-4.43-2.7-6.96-3.4-1.44-.4-2.9-.7-4.4-1.06,0-.23-.02-.43,0-.63C74.34,1.7,72.67-.01,69.75,0c-14.66.07-29.31.03-43.97.03-.4,0-.8-.02-1.2.01-2.04.14-3.36,1.56-3.37,3.61,0,.43,0,.86,0,1.34-.38.08-.7.14-1.02.21-2.86.56-5.66,1.3-8.21,2.76-4.18,2.4-6.76,5.96-6.45,10.83.5,7.94,3.98,14.32,11.13,18.29,4.37,2.43,9.22,3.23,14.11,3.72.69.07,1.13.32,1.57.85,1.23,1.45,2.47,2.9,3.84,4.21,3.14,3.01,5.04,6.6,4.92,10.98-.1,3.73-.56,7.45-.88,11.17-.02.19-.18.41-.33.53-1.69,1.29-3.41,2.54-5.07,3.86-1.13.9-1.72,2.1-1.67,3.58.01.4,0,.79,0,1.38-.49,0-.85,0-1.21,0-4.28.09-7.11,2.98-7.11,7.26,0,1.54.03,3.07-.03,4.61-.01.3-.28.75-.54.85-2.04.83-3.19,2.33-3.6,4.45-.14.72-.29,1.44-.43,2.16-.57,2.92.79,4.55,3.79,4.55,15.79,0,31.58,0,47.37,0,.37,0,.74-.02,1.09-.08,1.84-.33,3-1.97,2.67-3.81-.2-1.08-.43-2.16-.65-3.23-.4-1.92-1.55-3.24-3.34-3.93-.6-.23-.72-.53-.71-1.1.03-1.64.04-3.27,0-4.91-.1-3.67-2.7-6.43-6.35-6.77-.62-.06-1.25-.07-1.99-.11,0-.6.1-1.15-.02-1.65-.22-.85-.35-1.91-.93-2.45-1.74-1.63-3.69-3.04-5.53-4.56-.26-.22-.54-.57-.57-.88-.29-2.79-.45-5.59-.78-8.37-.62-5.22.87-9.66,4.6-13.38,1.46-1.46,2.8-3.03,4.23-4.52.29-.3.73-.57,1.14-.64,2.26-.39,4.56-.62,6.81-1.08,9.84-1.99,16.07-7.82,18.35-17.65,1.15-4.96.06-9.35-3.98-12.74ZM15.78,31.56c-3.74-3.22-5.64-7.47-6.15-12.31-.3-2.85.88-5.22,3.21-6.94,2.53-1.88,5.49-2.61,8.65-3.17.92,9.51,2.97,18.64,7.48,27.32-4.87-.76-9.48-1.71-13.2-4.91Zm69.62-10.52c-1.74,7.87-6.5,12.79-14.42,14.54-1.49.33-2.99.6-4.72.94,4.52-8.72,6.58-17.83,7.5-27.38,3.91.77,7.72,1.57,10.35,4.86,1.67,2.08,1.84,4.53,1.29,7.03Z"/>
  <text class="cls-1" transform="translate(28.64 32.63)"><tspan x="0" y="0">#1</tspan></text>
  <polygon class="cls-3" points="0 77.43 98.23 77.43 84.49 87.55 98.23 96.8 0 96.77 13.66 87.25 0 77.43"/>
  <text class="cls-2" transform="translate(26.99 88.84)"><tspan x="0" y="0">Highest Streak</tspan></text>
</svg>