<?xml version="1.0" encoding="UTF-8"?>
<svg id="Capa_1" data-name="Capa 1" xmlns="http://www.w3.org/2000/svg" viewBox="0 0 86.75 77.13">
  <defs>
    <style>
      .cls-1 {
        font-family: MontserratRoman-Bold, Montserrat;
        font-size: 14.09px;
        font-variation-settings: 'wght' 700;
        font-weight: 700;
      }

      .cls-1, .cls-2 {
        fill: #39bdf7;
      }

      .cls-3 {
        fill: #fff;
      }

      .cls-3, .cls-2 {
        stroke-width: 0px;
      }
    </style>
  </defs>
  <path class="cls-2" d="m17.57,6.99c.34,2.85-.56,6.07,2.23,8.01,1.05.73,2.47,1.2,3.74,1.27,2.22.11,4.09-1.06,4.79-3.15.63-1.88.62-3.96.91-6.12h8.54c0,1.29-.05,2.56.01,3.82.16,3.18,2.46,5.46,5.48,5.52,3.12.05,5.53-2.26,5.7-5.53.06-1.2.01-2.4.01-3.78h8.84c0,1.2-.04,2.45,0,3.7.12,3.2,2.38,5.52,5.39,5.6,3.04.08,5.5-2.07,5.8-5.21.13-1.33.02-2.68.02-3.97,8.19-1.39,16.47,4.93,17.49,13.09.16,1.27.2,2.57.2,3.85.02,11.95.02,23.91.02,35.86,0,10.76-6.46,17.17-17.27,17.17-17.55,0-35.11,0-52.66,0-10.16,0-16.78-6.59-16.79-16.73-.02-12.48-.07-24.97.03-37.45C.13,13.17,7.62,6.29,17.57,6.99ZM5.95,27.27c-.04.79-.12,1.45-.12,2.12,0,10.36-.02,20.73,0,31.09.01,6.79,4.08,10.8,10.93,10.8,17.7,0,35.4,0,53.1,0,7.12,0,11.06-3.96,11.07-11.12,0-10.14,0-20.27,0-30.41,0-.81,0-1.61,0-2.47H5.95Z"/>
  <path class="cls-2" d="m46.58,7.17c0,1.21.07,2.42-.01,3.62-.13,1.84-1.55,3.25-3.22,3.13-1.8-.14-3.02-1.15-3.11-2.99-.12-2.64-.12-5.29,0-7.93.08-1.83,1.25-2.88,3.08-3,1.72-.11,3.11,1.22,3.24,3.09.09,1.35.02,2.72.02,4.08Z"/>
  <path class="cls-2" d="m26.55,7c0,1.21.05,2.42-.01,3.62-.11,1.98-1.55,3.47-3.29,3.3-1.9-.19-3.04-1.29-3.07-3.27-.05-2.49-.07-4.99,0-7.48.06-1.97,1.22-3.13,3.15-3.15,1.95-.02,3.04,1.21,3.2,3.12.11,1.28.02,2.57.02,3.85Z"/>
  <path class="cls-2" d="m66.59,7.04c0,1.28.07,2.57-.02,3.85-.13,1.87-1.28,2.95-3.06,3.02-1.81.07-3.1-1.05-3.22-2.84-.18-2.71-.17-5.44,0-8.15.11-1.8,1.33-2.93,3.17-2.89,1.94.04,3.04,1.21,3.14,3.17.07,1.28.01,2.57.01,3.85,0,0,0,0,0,0Z"/>
  <path class="cls-3" d="m5.95,27.27h74.99c0,.86,0,1.67,0,2.47,0,10.14,0,20.27,0,30.41,0,7.16-3.95,11.12-11.07,11.12-17.7,0-35.4,0-53.1,0-6.85,0-10.92-4.01-10.93-10.8-.02-10.36,0-20.73,0-31.09,0-.66.07-1.33.12-2.12Z"/>
  <text class="cls-1" transform="translate(8.56 52.28)"><tspan x="0" y="0">10 Lesson</tspan></text>
</svg>