<?xml version="1.0" encoding="UTF-8"?>
<svg id="Capa_1" data-name="Capa 1" xmlns="http://www.w3.org/2000/svg" viewBox="0 0 46.17 41.05">
  <defs>
    <style>
      .cls-1 {
        fill: #fff;
      }

      .cls-1, .cls-2 {
        stroke-width: 0px;
      }

      .cls-3 {
        font-family: MontserratRoman-Bold, Montserrat;
        font-size: 7.5px;
        font-variation-settings: 'wght' 700;
        font-weight: 700;
      }

      .cls-3, .cls-2 {
        fill: #ff6e0b;
      }
    </style>
  </defs>
  <path class="cls-2" d="m9.35,3.72c.18,1.52-.3,3.23,1.19,4.26.56.39,1.31.64,1.99.67,1.18.06,2.18-.56,2.55-1.67.33-1,.33-2.11.48-3.25h4.55c0,.69-.03,1.36,0,2.03.08,1.69,1.31,2.91,2.92,2.94,1.66.03,2.94-1.2,3.04-2.94.03-.64,0-1.28,0-2.01h4.7c0,.64-.02,1.31,0,1.97.07,1.7,1.27,2.94,2.87,2.98,1.62.04,2.93-1.1,3.08-2.77.07-.71.01-1.43.01-2.11,4.36-.74,8.77,2.62,9.31,6.97.08.68.11,1.37.11,2.05,0,6.36.01,12.72,0,19.09,0,5.73-3.44,9.14-9.19,9.14-9.34,0-18.68,0-28.03,0-5.41,0-8.93-3.5-8.94-8.9,0-6.64-.04-13.29.01-19.93C.07,7.01,4.06,3.35,9.35,3.72ZM3.17,14.52c-.02.42-.06.77-.06,1.13,0,5.52,0,11.03,0,16.55,0,3.61,2.17,5.75,5.82,5.75,9.42,0,18.84,0,28.26,0,3.79,0,5.89-2.11,5.89-5.92,0-5.39,0-10.79,0-16.18,0-.43,0-.86,0-1.32H3.17Z"/>
  <path class="cls-2" d="m24.79,3.82c0,.64.04,1.29,0,1.93-.07.98-.83,1.73-1.71,1.66-.96-.07-1.61-.61-1.65-1.59-.07-1.4-.06-2.81,0-4.22.05-.97.67-1.53,1.64-1.6.92-.06,1.66.65,1.72,1.64.05.72,0,1.45.01,2.17Z"/>
  <path class="cls-2" d="m14.13,3.72c0,.64.03,1.29,0,1.93-.06,1.05-.83,1.85-1.75,1.76-1.01-.1-1.62-.69-1.64-1.74-.02-1.33-.03-2.65,0-3.98.03-1.05.65-1.67,1.67-1.68,1.04-.01,1.62.64,1.7,1.66.06.68.01,1.37.01,2.05Z"/>
  <path class="cls-2" d="m35.44,3.75c0,.68.04,1.37,0,2.05-.07.99-.68,1.57-1.63,1.61-.97.03-1.65-.56-1.72-1.51-.1-1.44-.09-2.9,0-4.34.06-.96.71-1.56,1.69-1.54,1.03.02,1.62.64,1.67,1.68.04.68,0,1.37,0,2.05,0,0,0,0,0,0Z"/>
  <path class="cls-1" d="m3.17,14.52h39.91c0,.46,0,.89,0,1.32,0,5.39,0,10.79,0,16.18,0,3.81-2.1,5.92-5.89,5.92-9.42,0-18.84,0-28.26,0-3.65,0-5.81-2.13-5.82-5.75,0-5.52,0-11.03,0-16.55,0-.35.04-.71.06-1.13Z"/>
  <text class="cls-3" transform="translate(6.34 27.82)"><tspan x="0" y="0">5 Lesson</tspan></text>
</svg>