<?xml version="1.0" encoding="UTF-8"?>
<svg id="Capa_1" data-name="Capa 1" xmlns="http://www.w3.org/2000/svg" viewBox="0 0 63.4 56.37">
  <defs>
    <style>
      .cls-1, .cls-2 {
        stroke-width: 0px;
      }

      .cls-1, .cls-3 {
        fill: #34ce51;
      }

      .cls-2 {
        fill: #fff;
      }

      .cls-3 {
        font-family: MontserratRoman-Bold, Montserrat;
        font-size: 10.3px;
        font-variation-settings: 'wght' 700;
        font-weight: 700;
      }
    </style>
  </defs>
  <path class="cls-1" d="m12.84,5.11c.25,2.08-.41,4.44,1.63,5.85.77.53,1.8.88,2.74.93,1.63.08,2.99-.78,3.5-2.3.46-1.37.45-2.9.66-4.47h6.24c0,.95-.04,1.87,0,2.79.11,2.32,1.79,3.99,4.01,4.03,2.28.04,4.04-1.65,4.17-4.04.05-.87,0-1.75,0-2.76h6.46c0,.88-.03,1.79,0,2.7.09,2.34,1.74,4.03,3.94,4.09,2.22.06,4.02-1.52,4.24-3.81.09-.97.02-1.96.02-2.9,5.98-1.02,12.04,3.6,12.78,9.57.12.93.15,1.87.15,2.81.01,8.74.01,17.47.01,26.21,0,7.86-4.72,12.55-12.62,12.55-12.83,0-25.66,0-38.49,0-7.42,0-12.26-4.81-12.27-12.23-.01-9.12-.05-18.25.02-27.37.05-7.15,5.53-12.18,12.8-11.67Zm-8.49,14.83c-.03.58-.08,1.06-.08,1.55,0,7.57-.01,15.15,0,22.72,0,4.96,2.98,7.89,7.99,7.89,12.94,0,25.87,0,38.81,0,5.2,0,8.08-2.89,8.09-8.13,0-7.41,0-14.82,0-22.22,0-.59,0-1.18,0-1.81H4.35Z"/>
  <path class="cls-1" d="m34.04,5.24c0,.88.05,1.77-.01,2.65-.09,1.35-1.13,2.38-2.35,2.29-1.31-.1-2.21-.84-2.27-2.19-.09-1.93-.09-3.87,0-5.79.06-1.34.92-2.1,2.25-2.19,1.26-.08,2.28.89,2.37,2.26.07.99.01,1.99.01,2.98Z"/>
  <path class="cls-1" d="m19.4,5.11c0,.88.04,1.77,0,2.65-.08,1.45-1.13,2.54-2.4,2.41-1.39-.14-2.22-.94-2.25-2.39-.03-1.82-.05-3.64,0-5.46.04-1.44.89-2.29,2.3-2.3,1.43-.02,2.22.88,2.34,2.28.08.93.01,1.88.01,2.81Z"/>
  <path class="cls-1" d="m48.67,5.14c0,.94.05,1.88-.01,2.81-.09,1.36-.94,2.16-2.24,2.2-1.33.05-2.27-.76-2.36-2.08-.13-1.98-.12-3.98,0-5.96.08-1.31.97-2.14,2.32-2.11,1.42.03,2.22.88,2.29,2.31.05.94,0,1.88,0,2.81,0,0,0,0,0,0Z"/>
  <path class="cls-2" d="m4.35,19.93h54.8c0,.63,0,1.22,0,1.81,0,7.41,0,14.82,0,22.22,0,5.23-2.89,8.13-8.09,8.13-12.94,0-25.87,0-38.81,0-5.01,0-7.98-2.93-7.99-7.89-.01-7.57,0-15.15,0-22.72,0-.49.05-.97.08-1.55Z"/>
  <text class="cls-3" transform="translate(9.75 38.21)"><tspan x="0" y="0">1 Lesson</tspan></text>
</svg>